<svg xmlns="http://www.w3.org/2000/svg" id="canvas" viewBox="262.810 346.905 1174.520 222.631"><path d="M 369.57,354.25 C 369.07 353.08, 368.11 352.35, 366.25 351.49 C 364.39 350.64, 363.05 350.18, 360.28 349.98 C 357.51 349.79, 355.65 349.96, 352.40 350.50 C 349.15 351.04, 347.47 351.67, 344.04 352.69 C 340.62 353.70, 338.78 354.27, 335.26 355.58 C 331.74 356.88, 329.84 357.65, 326.43 359.21 C 323.01 360.77, 321.27 361.60, 318.17 363.38 C 315.08 365.16, 313.48 366.08, 310.97 368.10 C 308.45 370.13, 307.24 371.21, 305.59 373.51 C 303.93 375.82, 303.27 377.13, 302.71 379.62 C 302.16 382.12, 302.16 383.54, 302.80 385.99 C 303.45 388.45, 304.10 389.78, 305.95 391.90 C 307.80 394.03, 309.13 394.98, 312.06 396.63 C 314.99 398.29, 316.86 398.83, 320.59 400.19 C 324.32 401.55, 326.45 402.11, 330.69 403.45 C 334.93 404.78, 337.27 405.36, 341.78 406.84 C 346.30 408.33, 348.74 409.15, 353.26 410.87 C 357.77 412.59, 360.11 413.48, 364.36 415.47 C 368.60 417.45, 370.75 418.52, 374.49 420.81 C 378.23 423.10, 380.02 424.41, 383.08 426.91 C 386.14 429.40, 387.48 430.68, 389.79 433.29 C 392.11 435.90, 393.13 437.33, 394.66 439.97 C 396.19 442.61, 396.63 443.98, 397.45 446.49 C 398.26 449.00, 398.52 450.24, 398.74 452.52 C 398.96 454.80, 398.98 455.89, 398.53 457.89 C 398.09 459.89, 397.67 460.72, 396.49 462.51 C 395.31 464.30, 394.63 465.15, 392.64 466.85 C 390.66 468.55, 389.51 469.48, 386.58 471.01 C 383.66 472.54, 381.94 473.31, 378.02 474.49 C 374.11 475.66, 371.80 476.12, 367.02 476.88 C 362.23 477.64, 359.51 477.97, 354.12 478.30 C 348.72 478.62, 345.76 478.62, 340.03 478.51 C 334.30 478.39, 331.19 478.23, 325.45 477.72 C 319.71 477.21, 316.72 476.88, 311.31 475.96 C 305.90 475.04, 303.16 474.42, 298.41 473.12 C 293.66 471.83, 291.32 471.11, 287.54 469.47 C 283.76 467.84, 282.06 466.85, 279.51 464.97 C 276.96 463.09, 276.13 462.04, 274.80 460.09 C 273.47 458.13, 273.43 457.10, 272.87 455.19 C 272.31 453.28, 272.42 452.15, 271.99 450.52 C 271.56 448.88, 271.51 447.75, 270.72 447.00 C 269.93 446.24, 268.97 446.00, 268.03 446.74 C 267.10 447.47, 266.37 448.62, 266.04 450.68 C 265.72 452.74, 265.65 454.38, 266.39 457.03 C 267.12 459.68, 267.69 461.45, 269.72 463.93 C 271.75 466.41, 273.30 467.48, 276.52 469.45 C 279.74 471.42, 281.66 472.25, 285.83 473.78 C 290.00 475.32, 292.41 475.93, 297.38 477.13 C 302.35 478.33, 305.14 478.90, 310.68 479.77 C 316.23 480.65, 319.27 480.96, 325.11 481.49 C 330.96 482.01, 334.09 482.20, 339.92 482.39 C 345.76 482.59, 348.77 482.64, 354.31 482.46 C 359.85 482.28, 362.63 482.05, 367.64 481.49 C 372.65 480.93, 375.06 480.62, 379.37 479.65 C 383.68 478.68, 385.65 478.10, 389.19 476.63 C 392.73 475.16, 394.44 474.37, 397.08 472.31 C 399.73 470.25, 400.79 468.91, 402.43 466.32 C 404.06 463.74, 404.61 462.29, 405.25 459.39 C 405.89 456.49, 405.96 454.87, 405.65 451.84 C 405.34 448.81, 404.89 447.24, 403.71 444.23 C 402.53 441.21, 401.72 439.69, 399.73 436.76 C 397.74 433.83, 396.47 432.34, 393.75 429.58 C 391.04 426.83, 389.53 425.55, 386.15 422.99 C 382.78 420.44, 380.86 419.12, 376.89 416.80 C 372.91 414.48, 370.66 413.40, 366.27 411.37 C 361.87 409.33, 359.49 408.44, 354.91 406.63 C 350.33 404.82, 347.85 403.95, 343.35 402.31 C 338.86 400.67, 336.51 400.00, 332.44 398.43 C 328.37 396.86, 326.33 396.12, 323.01 394.49 C 319.70 392.86, 318.24 391.81, 315.86 390.28 C 313.47 388.76, 312.53 388.09, 311.09 386.86 C 309.65 385.63, 309.15 385.27, 308.66 384.14 C 308.17 383.00, 308.17 382.50, 308.63 381.21 C 309.09 379.91, 309.62 379.23, 310.95 377.66 C 312.29 376.09, 313.23 375.16, 315.32 373.38 C 317.41 371.60, 318.69 370.49, 321.41 368.76 C 324.14 367.04, 325.79 366.22, 328.97 364.76 C 332.15 363.29, 333.98 362.55, 337.32 361.45 C 340.66 360.34, 342.48 359.86, 345.66 359.24 C 348.85 358.61, 350.40 358.47, 353.26 358.34 C 356.12 358.21, 357.60 358.60, 359.97 358.59 C 362.34 358.58, 363.35 358.54, 365.11 358.29 C 366.87 358.04, 367.87 358.15, 368.77 357.34 C 369.66 356.54, 370.07 355.43, 369.57 354.25" style="stroke: black; fill: black;"/><path d="M 420.94,375.41 C 419.85 375.93, 419.31 376.82, 418.56 378.57 C 417.81 380.31, 417.40 381.51, 417.20 384.14 C 416.99 386.77, 417.28 388.52, 417.55 391.72 C 417.81 394.92, 418.15 396.59, 418.51 400.14 C 418.87 403.69, 418.97 405.56, 419.34 409.47 C 419.71 413.38, 419.94 415.53, 420.34 419.69 C 420.75 423.85, 420.92 426.04, 421.36 430.29 C 421.80 434.53, 422.04 436.73, 422.54 440.91 C 423.05 445.10, 423.31 447.25, 423.89 451.22 C 424.46 455.18, 424.80 457.13, 425.41 460.74 C 426.02 464.36, 426.28 466.11, 426.92 469.30 C 427.57 472.50, 427.78 474.35, 428.65 476.73 C 429.52 479.12, 430.31 479.97, 431.28 481.23 C 432.24 482.49, 432.74 482.61, 433.47 483.03 C 434.21 483.46, 434.47 483.44, 434.96 483.34 C 435.44 483.25, 435.63 482.93, 435.89 482.56 C 436.15 482.20, 436.14 482.26, 436.26 481.54 C 436.38 480.82, 436.69 480.37, 436.51 478.97 C 436.32 477.57, 435.99 476.78, 435.34 474.53 C 434.69 472.29, 434.12 470.74, 433.25 467.75 C 432.38 464.77, 431.82 463.09, 431.00 459.62 C 430.18 456.15, 429.82 454.25, 429.15 450.38 C 428.48 446.51, 428.19 444.40, 427.66 440.28 C 427.13 436.16, 426.91 433.99, 426.52 429.78 C 426.13 425.58, 426.00 423.38, 425.71 419.24 C 425.43 415.11, 425.24 412.97, 425.10 409.10 C 424.96 405.22, 424.96 403.37, 425.02 399.87 C 425.08 396.37, 425.23 394.69, 425.40 391.61 C 425.57 388.53, 425.89 386.91, 425.87 384.45 C 425.85 381.99, 425.66 381.01, 425.29 379.31 C 424.92 377.60, 424.90 376.71, 424.03 375.93 C 423.15 375.15, 422.03 374.88, 420.94 375.41" style="stroke: black; fill: black;"/><path d="M 396.91,435.95 C 397.83 436.58, 398.49 436.46, 400.35 436.40 C 402.22 436.34, 403.33 436.27, 406.23 435.65 C 409.12 435.02, 410.97 434.06, 414.82 433.30 C 418.67 432.53, 421.06 432.30, 425.47 431.84 C 429.89 431.37, 432.66 431.26, 436.91 430.99 C 441.16 430.72, 443.49 430.90, 446.74 430.48 C 450.00 430.07, 451.91 429.76, 453.19 428.92 C 454.46 428.07, 454.45 427.05, 453.12 426.27 C 451.79 425.50, 449.84 425.20, 446.53 425.04 C 443.22 424.89, 440.88 425.24, 436.57 425.49 C 432.27 425.75, 429.53 426.03, 425.01 426.31 C 420.49 426.60, 418.07 426.63, 413.98 426.92 C 409.89 427.21, 407.69 427.13, 404.56 427.78 C 401.44 428.43, 400.12 429.08, 398.36 430.18 C 396.60 431.28, 396.03 432.13, 395.74 433.28 C 395.45 434.44, 395.99 435.33, 396.91 435.95" style="stroke: black; fill: black;"/><path d="M 514.19,426.70 C 514.20 425.49, 513.67 424.53, 512.46 423.38 C 511.26 422.23, 510.25 421.64, 508.19 420.95 C 506.13 420.25, 504.68 419.95, 502.16 419.92 C 499.64 419.88, 498.26 420.23, 495.59 420.77 C 492.92 421.32, 491.58 421.62, 488.81 422.64 C 486.05 423.66, 484.58 424.34, 481.76 425.89 C 478.95 427.44, 477.39 428.39, 474.73 430.41 C 472.06 432.43, 470.72 433.58, 468.44 435.98 C 466.17 438.39, 464.94 439.68, 463.36 442.45 C 461.79 445.21, 461.16 446.77, 460.56 449.82 C 459.96 452.86, 459.88 454.59, 460.38 457.68 C 460.88 460.76, 461.32 462.48, 463.07 465.26 C 464.82 468.04, 466.25 469.36, 469.13 471.56 C 472.00 473.77, 473.75 474.72, 477.45 476.27 C 481.16 477.81, 483.30 478.39, 487.64 479.29 C 491.98 480.20, 494.48 480.57, 499.15 480.79 C 503.83 481.01, 506.32 480.85, 511.00 480.38 C 515.68 479.91, 518.11 479.49, 522.55 478.42 C 526.99 477.34, 529.28 476.66, 533.21 475.01 C 537.14 473.36, 539.01 472.30, 542.21 470.16 C 545.41 468.02, 546.97 466.92, 549.21 464.32 C 551.45 461.72, 552.41 460.16, 553.40 457.15 C 554.40 454.14, 554.51 452.37, 554.21 449.29 C 553.90 446.20, 553.36 444.53, 551.88 441.72 C 550.40 438.90, 549.17 437.56, 546.80 435.22 C 544.42 432.88, 542.91 431.85, 540.02 430.03 C 537.13 428.20, 535.46 427.08, 532.36 426.12 C 529.26 425.15, 526.32 424.71, 524.52 425.22 C 522.72 425.73, 522.35 427.20, 523.37 428.66 C 524.38 430.11, 527.05 431.02, 529.61 432.50 C 532.17 433.97, 533.75 434.44, 536.15 436.03 C 538.56 437.62, 539.77 438.58, 541.64 440.44 C 543.51 442.29, 544.32 443.35, 545.50 445.29 C 546.67 447.23, 547.18 448.16, 547.51 450.13 C 547.84 452.10, 547.77 453.10, 547.15 455.14 C 546.53 457.19, 546.03 458.26, 544.40 460.34 C 542.76 462.43, 541.63 463.59, 538.98 465.59 C 536.33 467.58, 534.67 468.69, 531.15 470.32 C 527.63 471.94, 525.50 472.65, 521.38 473.70 C 517.25 474.76, 514.92 475.16, 510.53 475.58 C 506.15 476.00, 503.78 476.10, 499.45 475.79 C 495.11 475.48, 492.76 475.03, 488.85 474.04 C 484.95 473.04, 483.02 472.35, 479.92 470.82 C 476.82 469.29, 475.48 468.27, 473.35 466.39 C 471.22 464.51, 470.47 463.38, 469.26 461.41 C 468.05 459.43, 467.66 458.54, 467.30 456.51 C 466.94 454.48, 466.98 453.33, 467.45 451.25 C 467.93 449.18, 468.42 448.19, 469.66 446.12 C 470.90 444.05, 471.78 442.88, 473.65 440.91 C 475.53 438.93, 476.69 437.88, 479.02 436.22 C 481.34 434.56, 482.77 433.82, 485.26 432.61 C 487.76 431.39, 489.11 430.95, 491.48 430.15 C 493.84 429.36, 495.02 429.00, 497.11 428.63 C 499.20 428.25, 500.15 428.19, 501.93 428.27 C 503.70 428.36, 504.48 428.77, 505.97 429.05 C 507.45 429.33, 508.06 429.59, 509.35 429.67 C 510.63 429.75, 511.42 430.05, 512.39 429.46 C 513.36 428.86, 514.17 427.92, 514.19 426.70" style="stroke: black; fill: black;"/><path d="M 568.42,436.19 C 567.46 436.58, 567.12 437.04, 566.56 438.18 C 565.99 439.31, 565.74 440.10, 565.60 441.86 C 565.45 443.63, 565.63 444.78, 565.84 446.99 C 566.05 449.20, 566.29 450.43, 566.64 452.91 C 566.99 455.38, 567.18 456.83, 567.61 459.36 C 568.03 461.89, 568.33 463.18, 568.79 465.55 C 569.25 467.92, 569.21 469.25, 569.90 471.19 C 570.58 473.13, 571.03 474.34, 572.22 475.26 C 573.40 476.19, 574.59 476.30, 575.81 475.81 C 577.03 475.32, 577.77 474.52, 578.31 472.81 C 578.84 471.10, 578.90 469.73, 578.47 467.27 C 578.04 464.80, 577.15 463.26, 576.16 460.50 C 575.18 457.75, 574.49 456.24, 573.54 453.49 C 572.59 450.74, 572.20 449.31, 571.42 446.75 C 570.65 444.18, 570.19 442.93, 569.68 440.65 C 569.17 438.37, 569.01 437.30, 568.87 435.34 C 568.72 433.39, 568.69 432.44, 568.95 430.87 C 569.21 429.29, 569.38 428.65, 570.17 427.47 C 570.95 426.29, 571.45 425.81, 572.86 424.96 C 574.28 424.12, 575.10 423.77, 577.23 423.24 C 579.36 422.70, 580.98 422.73, 583.51 422.28 C 586.03 421.83, 587.62 421.65, 589.85 420.97 C 592.07 420.28, 593.68 419.87, 594.64 418.86 C 595.60 417.84, 595.66 416.91, 594.64 415.89 C 593.62 414.88, 592.01 414.26, 589.53 413.78 C 587.05 413.30, 585.23 413.16, 582.24 413.50 C 579.24 413.85, 577.27 414.36, 574.55 415.50 C 571.83 416.64, 570.66 417.53, 568.64 419.20 C 566.62 420.86, 565.75 421.77, 564.46 423.83 C 563.18 425.90, 562.75 427.14, 562.21 429.51 C 561.68 431.88, 561.72 433.17, 561.79 435.68 C 561.85 438.19, 562.08 439.45, 562.54 442.07 C 563.01 444.68, 563.42 446.03, 564.10 448.75 C 564.78 451.48, 565.28 452.83, 565.94 455.67 C 566.60 458.52, 566.81 460.14, 567.40 462.97 C 567.98 465.80, 568.03 467.52, 568.86 469.81 C 569.69 472.10, 570.33 473.24, 571.55 474.42 C 572.77 475.60, 573.78 475.87, 574.97 475.72 C 576.15 475.56, 576.95 474.89, 577.46 473.64 C 577.97 472.38, 577.69 471.34, 577.50 469.45 C 577.31 467.56, 576.86 466.43, 576.50 464.18 C 576.14 461.94, 575.97 460.67, 575.70 458.23 C 575.44 455.79, 575.35 454.39, 575.18 451.99 C 575.01 449.60, 575.01 448.37, 574.86 446.25 C 574.71 444.12, 574.77 443.02, 574.43 441.37 C 574.10 439.73, 573.81 439.06, 573.19 438.03 C 572.58 437.00, 572.32 436.58, 571.37 436.21 C 570.41 435.84, 569.38 435.79, 568.42 436.19" style="stroke: black; fill: black;"/><path d="M 625.99,429.30 C 625.15 429.94, 624.70 430.64, 624.61 432.15 C 624.53 433.67, 624.66 434.85, 625.56 436.87 C 626.45 438.90, 627.26 440.16, 629.09 442.29 C 630.91 444.41, 632.24 445.51, 634.68 447.50 C 637.12 449.50, 638.52 450.45, 641.31 452.27 C 644.09 454.09, 645.62 455.05, 648.60 456.60 C 651.57 458.15, 653.07 458.87, 656.19 460.01 C 659.31 461.15, 660.99 461.67, 664.19 462.28 C 667.40 462.89, 669.08 463.13, 672.21 463.07 C 675.33 463.01, 676.93 462.70, 679.83 461.99 C 682.73 461.28, 684.15 460.79, 686.70 459.52 C 689.25 458.24, 690.49 457.44, 692.58 455.63 C 694.67 453.83, 695.68 452.66, 697.15 450.48 C 698.62 448.31, 699.14 447.01, 699.94 444.76 C 700.73 442.51, 700.98 441.29, 701.12 439.23 C 701.26 437.17, 701.37 436.01, 700.64 434.45 C 699.91 432.90, 698.98 431.93, 697.45 431.47 C 695.92 431.01, 694.44 431.19, 692.99 432.16 C 691.53 433.12, 690.85 434.17, 690.18 436.30 C 689.52 438.42, 689.32 439.90, 689.66 442.77 C 689.99 445.63, 690.82 447.32, 691.85 450.63 C 692.88 453.95, 693.54 455.70, 694.81 459.36 C 696.08 463.01, 696.72 464.94, 698.19 468.91 C 699.66 472.89, 700.57 474.99, 702.16 479.22 C 703.75 483.46, 704.63 485.70, 706.15 490.07 C 707.66 494.44, 708.40 496.67, 709.74 501.06 C 711.09 505.46, 711.80 507.74, 712.86 512.04 C 713.93 516.34, 714.45 518.52, 715.07 522.56 C 715.69 526.61, 715.88 528.56, 715.98 532.26 C 716.07 535.96, 716.02 537.90, 715.55 541.07 C 715.09 544.25, 714.66 545.66, 713.67 548.12 C 712.67 550.59, 712.06 551.61, 710.60 553.39 C 709.14 555.16, 708.35 555.82, 706.36 557.01 C 704.37 558.20, 703.31 558.65, 700.65 559.32 C 697.99 559.99, 696.44 560.27, 693.06 560.35 C 689.68 560.43, 687.72 560.30, 683.77 559.72 C 679.81 559.14, 677.61 558.66, 673.28 557.44 C 668.95 556.21, 666.51 555.37, 662.12 553.60 C 657.74 551.83, 655.43 550.80, 651.35 548.58 C 647.27 546.37, 645.19 545.10, 641.72 542.54 C 638.25 539.98, 636.57 538.55, 634.02 535.80 C 631.46 533.05, 630.44 531.61, 628.93 528.78 C 627.43 525.94, 626.94 524.49, 626.50 521.63 C 626.06 518.76, 626.12 517.39, 626.73 514.45 C 627.33 511.52, 628.30 509.78, 629.51 506.96 C 630.72 504.15, 631.86 502.82, 632.78 500.37 C 633.70 497.92, 634.34 496.17, 634.12 494.73 C 633.90 493.29, 633.11 492.70, 631.67 493.17 C 630.23 493.65, 628.63 494.87, 626.94 497.11 C 625.24 499.35, 624.47 501.12, 623.20 504.39 C 621.93 507.66, 621.07 509.78, 620.59 513.44 C 620.10 517.09, 620.05 519.05, 620.77 522.65 C 621.48 526.25, 622.23 528.10, 624.15 531.43 C 626.08 534.76, 627.41 536.31, 630.37 539.30 C 633.33 542.29, 635.19 543.71, 638.94 546.38 C 642.70 549.04, 644.89 550.32, 649.17 552.63 C 653.44 554.93, 655.81 556.00, 660.34 557.92 C 664.88 559.83, 667.35 560.74, 671.85 562.18 C 676.34 563.61, 678.59 564.23, 682.82 565.09 C 687.05 565.95, 689.14 566.31, 693.00 566.46 C 696.86 566.62, 698.74 566.57, 702.13 565.87 C 705.52 565.17, 707.19 564.62, 709.94 562.96 C 712.69 561.30, 713.93 560.09, 715.88 557.57 C 717.83 555.05, 718.58 553.51, 719.68 550.35 C 720.77 547.18, 721.02 545.41, 721.34 541.74 C 721.66 538.07, 721.56 536.00, 721.28 532.00 C 721.00 528.00, 720.72 525.97, 719.95 521.75 C 719.19 517.52, 718.61 515.28, 717.46 510.87 C 716.31 506.47, 715.57 504.17, 714.20 499.70 C 712.84 495.23, 712.11 492.98, 710.64 488.54 C 709.16 484.11, 708.31 481.81, 706.84 477.54 C 705.37 473.27, 704.52 471.16, 703.29 467.18 C 702.06 463.20, 701.53 461.28, 700.70 457.65 C 699.86 454.03, 699.47 452.19, 699.10 449.06 C 698.72 445.92, 698.94 444.35, 698.82 441.97 C 698.70 439.60, 698.78 438.68, 698.50 437.19 C 698.22 435.70, 698.04 435.14, 697.43 434.53 C 696.82 433.93, 696.05 433.94, 695.43 434.16 C 694.81 434.38, 694.60 434.79, 694.31 435.64 C 694.02 436.48, 694.27 437.05, 694.00 438.37 C 693.73 439.69, 693.56 440.64, 692.96 442.24 C 692.36 443.84, 692.03 444.79, 690.99 446.37 C 689.96 447.96, 689.28 448.82, 687.78 450.16 C 686.28 451.49, 685.44 452.11, 683.50 453.06 C 681.57 454.00, 680.41 454.35, 678.11 454.89 C 675.81 455.44, 674.54 455.69, 672.00 455.79 C 669.46 455.89, 668.12 455.85, 665.43 455.40 C 662.73 454.96, 661.24 454.54, 658.53 453.56 C 655.82 452.58, 654.47 451.96, 651.86 450.51 C 649.26 449.06, 647.84 448.13, 645.51 446.33 C 643.18 444.53, 642.06 443.47, 640.20 441.50 C 638.34 439.54, 637.60 438.35, 636.19 436.50 C 634.79 434.66, 634.28 433.61, 633.18 432.30 C 632.07 430.99, 631.54 430.64, 630.66 429.97 C 629.79 429.30, 629.73 429.07, 628.79 428.94 C 627.86 428.81, 626.82 428.65, 625.99 429.30" style="stroke: black; fill: black;"/><path d="M 845.69,398.71 C 844.80 399.62, 844.72 400.77, 844.44 402.79 C 844.16 404.80, 843.99 406.05, 844.30 408.79 C 844.61 411.53, 845.34 413.29, 845.99 416.49 C 846.65 419.70, 847.02 421.33, 847.58 424.82 C 848.15 428.31, 848.34 430.15, 848.82 433.93 C 849.30 437.71, 849.53 439.78, 850.00 443.72 C 850.46 447.66, 850.74 449.70, 851.15 453.63 C 851.56 457.55, 851.70 459.56, 852.06 463.33 C 852.41 467.11, 852.65 469.10, 852.93 472.51 C 853.20 475.93, 853.04 477.60, 853.43 480.40 C 853.81 483.20, 854.16 484.57, 854.84 486.53 C 855.53 488.48, 855.97 489.48, 856.84 490.15 C 857.72 490.83, 858.51 490.75, 859.23 489.90 C 859.95 489.06, 860.17 488.01, 860.43 485.94 C 860.69 483.87, 860.82 482.40, 860.54 479.56 C 860.26 476.72, 859.59 475.13, 859.02 471.76 C 858.45 468.39, 858.17 466.45, 857.69 462.71 C 857.21 458.97, 857.06 456.96, 856.63 453.04 C 856.20 449.12, 855.96 447.05, 855.55 443.10 C 855.15 439.16, 854.93 437.11, 854.61 433.31 C 854.28 429.51, 854.17 427.65, 853.93 424.09 C 853.69 420.53, 853.60 418.80, 853.39 415.51 C 853.18 412.21, 853.30 410.36, 852.88 407.63 C 852.45 404.90, 852.05 403.75, 851.25 401.87 C 850.45 400.00, 849.99 398.88, 848.88 398.25 C 847.76 397.61, 846.58 397.80, 845.69 398.71" style="stroke: black; fill: black;"/><path d="M 823.10,397.00 C 824.24 396.59, 824.58 395.46, 825.62 394.12 C 826.65 392.79, 826.93 392.07, 828.27 390.34 C 829.60 388.60, 830.10 387.31, 832.30 385.44 C 834.49 383.58, 835.97 382.60, 839.24 381.00 C 842.52 379.41, 844.59 378.62, 848.68 377.46 C 852.77 376.31, 855.14 375.77, 859.69 375.22 C 864.24 374.68, 866.76 374.57, 871.44 374.75 C 876.13 374.92, 878.70 375.20, 883.10 376.10 C 887.49 377.01, 889.68 377.66, 893.40 379.27 C 897.12 380.87, 898.93 381.99, 901.69 384.13 C 904.45 386.26, 905.58 387.53, 907.20 389.96 C 908.83 392.39, 909.26 393.67, 909.84 396.29 C 910.42 398.91, 910.51 400.31, 910.11 403.07 C 909.71 405.83, 909.25 407.28, 907.83 410.08 C 906.41 412.88, 905.42 414.40, 903.04 417.08 C 900.65 419.76, 899.13 421.12, 895.92 423.49 C 892.71 425.86, 890.69 427.01, 886.99 428.93 C 883.28 430.86, 881.21 431.75, 877.40 433.10 C 873.60 434.45, 871.50 434.97, 867.97 435.68 C 864.44 436.40, 862.59 436.35, 859.73 436.68 C 856.87 437.01, 855.56 436.95, 853.69 437.32 C 851.82 437.69, 851.33 438.12, 850.38 438.53 C 849.43 438.95, 849.30 438.92, 848.95 439.38 C 848.60 439.84, 848.39 440.25, 848.63 440.84 C 848.87 441.43, 849.07 441.79, 850.14 442.33 C 851.20 442.87, 851.86 443.34, 853.96 443.54 C 856.05 443.74, 857.55 443.80, 860.63 443.33 C 863.70 442.86, 865.60 442.25, 869.32 441.18 C 873.04 440.12, 875.21 439.55, 879.22 438.02 C 883.22 436.49, 885.39 435.57, 889.36 433.53 C 893.33 431.49, 895.48 430.36, 899.05 427.83 C 902.62 425.31, 904.39 423.91, 907.22 420.92 C 910.05 417.93, 911.38 416.27, 913.20 412.87 C 915.01 409.48, 915.77 407.56, 916.28 403.96 C 916.79 400.36, 916.64 398.32, 915.76 394.87 C 914.88 391.41, 914.07 389.66, 911.88 386.67 C 909.69 383.68, 908.14 382.29, 904.82 379.91 C 901.50 377.54, 899.42 376.46, 895.26 374.79 C 891.10 373.12, 888.73 372.50, 884.01 371.58 C 879.28 370.65, 876.60 370.38, 871.63 370.15 C 866.67 369.93, 864.03 370.02, 859.19 370.47 C 854.34 370.92, 851.86 371.40, 847.40 372.40 C 842.95 373.40, 840.79 374.05, 836.90 375.48 C 833.02 376.92, 831.03 377.60, 827.99 379.59 C 824.95 381.59, 823.45 383.05, 821.70 385.45 C 819.96 387.85, 819.63 389.44, 819.27 391.59 C 818.91 393.74, 819.14 395.12, 819.91 396.20 C 820.67 397.29, 821.96 397.42, 823.10 397.00" style="stroke: black; fill: black;"/><path d="M 955.16,453.36 C 955.38 452.23, 955.08 451.37, 954.20 450.21 C 953.32 449.05, 952.47 448.39, 950.77 447.56 C 949.06 446.73, 947.87 446.42, 945.66 446.05 C 943.46 445.68, 942.26 445.66, 939.74 445.70 C 937.23 445.74, 935.85 445.78, 933.10 446.25 C 930.34 446.72, 928.84 447.07, 925.96 448.07 C 923.08 449.07, 921.55 449.77, 918.71 451.25 C 915.86 452.74, 914.32 453.60, 911.74 455.48 C 909.15 457.36, 907.84 458.40, 905.80 460.67 C 903.75 462.93, 902.79 464.23, 901.52 466.82 C 900.26 469.42, 899.74 470.83, 899.47 473.63 C 899.20 476.43, 899.27 478.04, 900.15 480.81 C 901.03 483.58, 901.78 485.18, 903.87 487.48 C 905.96 489.77, 907.47 490.73, 910.60 492.31 C 913.72 493.88, 915.66 494.48, 919.49 495.33 C 923.33 496.19, 925.59 496.39, 929.79 496.57 C 933.98 496.74, 936.19 496.56, 940.46 496.22 C 944.72 495.87, 947.03 495.68, 951.12 494.82 C 955.21 493.96, 957.33 493.31, 960.92 491.92 C 964.51 490.52, 966.18 489.71, 969.08 487.84 C 971.99 485.98, 973.48 484.97, 975.45 482.58 C 977.43 480.19, 978.08 478.64, 978.95 475.90 C 979.83 473.16, 979.97 471.68, 979.83 468.89 C 979.69 466.10, 979.33 464.59, 978.25 461.96 C 977.16 459.33, 976.23 457.96, 974.40 455.75 C 972.57 453.55, 971.32 452.59, 969.11 450.94 C 966.89 449.29, 965.58 448.51, 963.31 447.50 C 961.04 446.49, 959.64 446.25, 957.77 445.88 C 955.90 445.52, 955.18 445.50, 953.97 445.66 C 952.76 445.83, 952.31 446.27, 951.72 446.70 C 951.13 447.13, 951.13 447.37, 951.01 447.82 C 950.89 448.26, 951.01 448.50, 951.11 448.92 C 951.22 449.35, 951.18 449.45, 951.53 449.94 C 951.88 450.42, 952.03 450.79, 952.86 451.35 C 953.69 451.91, 954.27 452.12, 955.70 452.74 C 957.12 453.37, 958.25 453.60, 960.00 454.49 C 961.75 455.38, 962.75 455.93, 964.45 457.20 C 966.15 458.46, 967.08 459.26, 968.49 460.83 C 969.90 462.40, 970.60 463.32, 971.50 465.04 C 972.40 466.76, 972.76 467.67, 972.99 469.44 C 973.21 471.22, 973.18 472.13, 972.64 473.91 C 972.09 475.68, 971.67 476.57, 970.25 478.32 C 968.84 480.07, 967.87 481.00, 965.57 482.66 C 963.27 484.32, 961.86 485.26, 958.74 486.63 C 955.62 488.00, 953.71 488.68, 949.97 489.52 C 946.23 490.35, 944.02 490.54, 940.05 490.81 C 936.09 491.08, 933.94 491.16, 930.14 490.84 C 926.34 490.53, 924.30 490.17, 921.06 489.22 C 917.81 488.26, 916.28 487.39, 913.92 486.05 C 911.56 484.71, 910.67 484.00, 909.25 482.50 C 907.82 481.01, 907.41 480.21, 906.80 478.57 C 906.20 476.93, 906.05 476.02, 906.23 474.32 C 906.42 472.63, 906.72 471.80, 907.72 470.09 C 908.73 468.39, 909.58 467.49, 911.26 465.78 C 912.94 464.07, 913.95 463.09, 916.11 461.54 C 918.28 460.00, 919.62 459.22, 922.09 458.06 C 924.57 456.89, 926.02 456.49, 928.49 455.72 C 930.97 454.94, 932.20 454.58, 934.46 454.19 C 936.71 453.81, 937.82 453.77, 939.76 453.80 C 941.69 453.83, 942.56 454.03, 944.14 454.35 C 945.72 454.68, 946.39 455.07, 947.66 455.41 C 948.92 455.76, 949.38 455.99, 950.47 456.08 C 951.57 456.17, 952.19 456.41, 953.13 455.87 C 954.07 455.32, 954.95 454.50, 955.16 453.36" style="stroke: black; fill: black;"/><path d="M 998.19,456.05 C 997.19 456.26, 996.78 456.58, 996.04 457.60 C 995.31 458.63, 994.85 459.41, 994.52 461.16 C 994.19 462.91, 994.27 464.16, 994.41 466.34 C 994.54 468.52, 994.91 469.74, 995.18 472.06 C 995.46 474.38, 995.53 475.57, 995.79 477.94 C 996.06 480.32, 996.18 481.72, 996.50 483.93 C 996.83 486.15, 996.99 487.32, 997.40 489.04 C 997.82 490.75, 997.90 491.61, 998.56 492.50 C 999.22 493.39, 999.87 493.60, 1000.71 493.48 C 1001.55 493.36, 1002.27 492.88, 1002.76 491.91 C 1003.25 490.93, 1003.38 490.20, 1003.14 488.61 C 1002.90 487.03, 1002.39 485.98, 1001.56 483.99 C 1000.73 482.00, 999.93 480.81, 998.98 478.65 C 998.02 476.50, 997.49 475.38, 996.78 473.20 C 996.08 471.02, 995.81 469.88, 995.46 467.76 C 995.11 465.65, 995.00 464.57, 995.03 462.62 C 995.06 460.66, 995.16 459.70, 995.61 457.99 C 996.07 456.27, 996.39 455.46, 997.32 454.05 C 998.25 452.63, 998.78 452.00, 1000.28 450.91 C 1001.79 449.83, 1002.69 449.41, 1004.84 448.62 C 1007.00 447.84, 1008.62 447.71, 1011.05 446.98 C 1013.49 446.25, 1014.96 445.90, 1017.03 444.97 C 1019.10 444.03, 1020.62 443.42, 1021.41 442.29 C 1022.20 441.17, 1022.11 440.21, 1020.98 439.36 C 1019.86 438.52, 1018.22 438.21, 1015.80 438.08 C 1013.39 437.94, 1011.76 438.05, 1008.92 438.67 C 1006.08 439.30, 1004.25 439.89, 1001.60 441.20 C 998.95 442.52, 997.74 443.45, 995.69 445.23 C 993.64 447.02, 992.77 447.99, 991.36 450.14 C 989.96 452.29, 989.40 453.55, 988.66 455.99 C 987.92 458.43, 987.81 459.79, 987.67 462.35 C 987.54 464.91, 987.69 466.21, 987.98 468.79 C 988.28 471.37, 988.58 472.71, 989.15 475.26 C 989.72 477.80, 990.16 479.08, 990.84 481.53 C 991.51 483.98, 991.72 485.33, 992.51 487.50 C 993.29 489.68, 993.61 490.93, 994.76 492.41 C 995.90 493.89, 996.80 494.45, 998.25 494.91 C 999.69 495.38, 1000.73 495.25, 1001.97 494.73 C 1003.21 494.21, 1003.85 493.63, 1004.44 492.32 C 1005.03 491.00, 1004.95 490.02, 1004.94 488.15 C 1004.93 486.28, 1004.61 485.15, 1004.40 482.96 C 1004.18 480.78, 1004.00 479.52, 1003.84 477.22 C 1003.69 474.92, 1003.65 473.73, 1003.62 471.48 C 1003.59 469.24, 1003.70 468.02, 1003.68 466.01 C 1003.66 464.00, 1003.75 462.96, 1003.52 461.43 C 1003.29 459.90, 1003.04 459.33, 1002.54 458.35 C 1002.03 457.38, 1001.87 457.02, 1001.00 456.56 C 1000.13 456.10, 999.18 455.84, 998.19 456.05" style="stroke: black; fill: black;"/><path d="M 1064.59,394.90 C 1063.64 395.30, 1063.27 395.79, 1062.70 397.05 C 1062.12 398.31, 1061.84 399.16, 1061.71 401.21 C 1061.58 403.26, 1061.67 404.63, 1062.04 407.30 C 1062.40 409.97, 1062.93 411.42, 1063.52 414.56 C 1064.12 417.71, 1064.43 419.45, 1065.00 423.03 C 1065.57 426.61, 1065.83 428.53, 1066.35 432.45 C 1066.87 436.38, 1067.10 438.54, 1067.61 442.64 C 1068.12 446.75, 1068.38 448.86, 1068.91 452.99 C 1069.43 457.12, 1069.64 459.25, 1070.24 463.29 C 1070.83 467.32, 1071.24 469.38, 1071.87 473.17 C 1072.51 476.97, 1072.81 478.82, 1073.41 482.28 C 1074.02 485.74, 1074.04 487.59, 1074.91 490.50 C 1075.77 493.40, 1076.61 494.93, 1077.74 496.81 C 1078.87 498.69, 1079.56 499.42, 1080.56 499.89 C 1081.57 500.36, 1082.24 500.14, 1082.77 499.15 C 1083.29 498.17, 1083.40 497.09, 1083.17 494.97 C 1082.94 492.84, 1082.42 491.34, 1081.64 488.55 C 1080.85 485.76, 1080.12 484.28, 1079.26 481.00 C 1078.39 477.73, 1078.06 475.87, 1077.30 472.17 C 1076.54 468.46, 1076.10 466.45, 1075.46 462.48 C 1074.82 458.52, 1074.61 456.43, 1074.12 452.34 C 1073.62 448.25, 1073.38 446.14, 1072.97 442.04 C 1072.56 437.94, 1072.39 435.77, 1072.06 431.83 C 1071.73 427.89, 1071.53 425.95, 1071.32 422.34 C 1071.10 418.74, 1071.03 416.96, 1070.98 413.79 C 1070.92 410.63, 1071.13 409.15, 1071.03 406.53 C 1070.94 403.90, 1070.89 402.57, 1070.51 400.66 C 1070.12 398.74, 1069.74 398.08, 1069.13 396.96 C 1068.52 395.84, 1068.37 395.48, 1067.46 395.07 C 1066.55 394.65, 1065.54 394.51, 1064.59 394.90" style="stroke: black; fill: black;"/><path d="M 1051.27,463.49 C 1052.06 464.28, 1052.78 464.24, 1054.46 464.51 C 1056.14 464.77, 1057.12 465.04, 1059.67 464.82 C 1062.23 464.61, 1063.87 463.95, 1067.24 463.43 C 1070.61 462.91, 1072.61 462.64, 1076.50 462.22 C 1080.40 461.79, 1082.62 461.65, 1086.72 461.31 C 1090.83 460.98, 1092.96 460.82, 1097.04 460.54 C 1101.12 460.26, 1103.52 460.24, 1107.12 459.92 C 1110.71 459.61, 1112.48 459.61, 1115.02 458.96 C 1117.55 458.31, 1118.88 457.62, 1119.77 456.67 C 1120.66 455.73, 1120.56 454.94, 1119.48 454.23 C 1118.39 453.52, 1116.95 453.21, 1114.36 453.14 C 1111.77 453.06, 1110.08 453.49, 1106.53 453.87 C 1102.97 454.25, 1100.62 454.65, 1096.59 455.04 C 1092.56 455.42, 1090.45 455.58, 1086.36 455.79 C 1082.26 456.00, 1080.07 456.04, 1076.13 456.09 C 1072.19 456.15, 1070.15 456.06, 1066.66 456.08 C 1063.17 456.10, 1061.35 455.81, 1058.68 456.20 C 1056.00 456.59, 1054.91 457.16, 1053.28 458.03 C 1051.65 458.90, 1050.93 459.47, 1050.53 460.56 C 1050.13 461.65, 1050.49 462.70, 1051.27 463.49" style="stroke: black; fill: black;"/><path d="M 1158.92,423.30 C 1159.75 422.37, 1159.94 421.30, 1159.87 419.66 C 1159.81 418.03, 1159.54 416.91, 1158.58 415.14 C 1157.62 413.37, 1156.72 412.22, 1155.06 410.83 C 1153.41 409.45, 1152.29 408.99, 1150.29 408.22 C 1148.30 407.44, 1147.27 407.15, 1145.11 406.97 C 1142.95 406.79, 1141.75 406.79, 1139.50 407.31 C 1137.25 407.83, 1136.05 408.30, 1133.87 409.57 C 1131.70 410.85, 1130.59 411.68, 1128.63 413.69 C 1126.68 415.70, 1125.59 416.88, 1124.11 419.64 C 1122.63 422.39, 1122.14 424.10, 1121.23 427.45 C 1120.32 430.80, 1120.00 432.64, 1119.56 436.39 C 1119.11 440.14, 1118.99 442.13, 1119.00 446.21 C 1119.01 450.29, 1119.15 452.47, 1119.60 456.79 C 1120.05 461.11, 1120.39 463.36, 1121.24 467.81 C 1122.09 472.27, 1122.65 474.58, 1123.84 479.07 C 1125.03 483.57, 1125.81 485.90, 1127.20 490.31 C 1128.59 494.72, 1129.35 496.92, 1130.81 501.10 C 1132.27 505.29, 1133.05 507.41, 1134.48 511.25 C 1135.91 515.10, 1136.64 517.03, 1137.96 520.34 C 1139.27 523.65, 1139.62 525.36, 1141.04 527.82 C 1142.46 530.27, 1143.73 531.91, 1145.06 532.63 C 1146.39 533.35, 1147.36 532.89, 1147.68 531.42 C 1147.99 529.95, 1147.53 527.97, 1146.65 525.30 C 1145.77 522.63, 1144.75 521.25, 1143.27 518.06 C 1141.80 514.87, 1140.85 513.07, 1139.27 509.35 C 1137.69 505.63, 1136.88 503.57, 1135.37 499.47 C 1133.86 495.38, 1133.09 493.19, 1131.71 488.87 C 1130.33 484.55, 1129.58 482.26, 1128.46 477.87 C 1127.33 473.49, 1126.82 471.25, 1126.10 466.94 C 1125.37 462.63, 1125.10 460.46, 1124.81 456.34 C 1124.52 452.22, 1124.47 450.14, 1124.65 446.34 C 1124.84 442.54, 1125.08 440.69, 1125.73 437.34 C 1126.38 434.00, 1126.85 432.36, 1127.91 429.61 C 1128.97 426.85, 1129.75 425.68, 1131.03 423.57 C 1132.31 421.46, 1132.95 420.56, 1134.31 419.08 C 1135.68 417.59, 1136.45 417.02, 1137.85 416.14 C 1139.25 415.25, 1139.95 415.01, 1141.31 414.65 C 1142.66 414.28, 1143.37 414.26, 1144.61 414.31 C 1145.86 414.36, 1146.57 414.45, 1147.55 414.90 C 1148.54 415.35, 1148.83 415.66, 1149.54 416.55 C 1150.25 417.45, 1150.40 418.25, 1151.09 419.39 C 1151.78 420.53, 1152.07 421.28, 1152.99 422.26 C 1153.91 423.24, 1154.50 424.09, 1155.69 424.29 C 1156.88 424.50, 1158.08 424.23, 1158.92 423.30" style="stroke: black; fill: black;"/><path d="M 1106.74,479.93 C 1107.55 480.56, 1107.93 480.44, 1109.54 480.54 C 1111.14 480.65, 1112.18 480.93, 1114.78 480.44 C 1117.38 479.96, 1118.90 478.94, 1122.54 478.11 C 1126.18 477.28, 1128.61 476.98, 1133.00 476.29 C 1137.39 475.59, 1139.86 475.23, 1144.50 474.64 C 1149.14 474.05, 1151.53 473.83, 1156.20 473.34 C 1160.86 472.85, 1163.37 472.61, 1167.84 472.19 C 1172.31 471.77, 1174.47 471.57, 1178.54 471.23 C 1182.61 470.90, 1184.60 470.72, 1188.19 470.51 C 1191.78 470.29, 1193.56 470.44, 1196.50 470.15 C 1199.45 469.86, 1200.87 469.67, 1202.92 469.06 C 1204.97 468.45, 1205.69 467.89, 1206.76 467.10 C 1207.83 466.32, 1208.10 465.86, 1208.27 465.14 C 1208.44 464.42, 1208.13 463.94, 1207.60 463.51 C 1207.07 463.08, 1206.76 463.15, 1205.61 462.98 C 1204.46 462.82, 1203.82 462.62, 1201.83 462.71 C 1199.84 462.79, 1198.51 462.97, 1195.66 463.41 C 1192.81 463.84, 1191.11 464.32, 1187.58 464.88 C 1184.05 465.43, 1182.05 465.67, 1178.01 466.19 C 1173.96 466.70, 1171.81 466.95, 1167.35 467.45 C 1162.90 467.95, 1160.40 468.22, 1155.72 468.68 C 1151.04 469.15, 1148.64 469.35, 1143.97 469.77 C 1139.30 470.20, 1136.85 470.48, 1132.38 470.80 C 1127.90 471.12, 1125.46 471.14, 1121.60 471.36 C 1117.73 471.58, 1115.86 471.30, 1113.05 471.91 C 1110.25 472.52, 1109.08 473.31, 1107.57 474.41 C 1106.06 475.52, 1105.67 476.31, 1105.50 477.42 C 1105.34 478.52, 1105.94 479.31, 1106.74 479.93" style="stroke: black; fill: black;"/><path d="M 1236.36,460.68 C 1236.44 459.56, 1236.09 458.82, 1235.11 457.80 C 1234.13 456.78, 1233.30 456.22, 1231.47 455.59 C 1229.64 454.97, 1228.35 454.73, 1225.96 454.68 C 1223.58 454.64, 1222.21 454.87, 1219.53 455.38 C 1216.85 455.89, 1215.37 456.24, 1212.56 457.23 C 1209.74 458.23, 1208.24 458.91, 1205.46 460.37 C 1202.68 461.83, 1201.17 462.66, 1198.66 464.52 C 1196.15 466.39, 1194.89 467.43, 1192.91 469.71 C 1190.92 471.99, 1189.95 473.31, 1188.73 475.92 C 1187.51 478.53, 1187.05 480.00, 1186.80 482.77 C 1186.55 485.54, 1186.64 487.07, 1187.47 489.78 C 1188.30 492.49, 1188.95 494.02, 1190.94 496.33 C 1192.94 498.64, 1194.40 499.77, 1197.44 501.33 C 1200.48 502.88, 1202.40 503.33, 1206.14 504.10 C 1209.88 504.88, 1212.03 505.08, 1216.14 505.20 C 1220.26 505.31, 1222.51 505.22, 1226.73 504.69 C 1230.94 504.16, 1233.17 503.65, 1237.22 502.54 C 1241.27 501.43, 1243.38 500.66, 1246.98 499.14 C 1250.58 497.61, 1252.32 496.81, 1255.23 494.89 C 1258.14 492.97, 1259.56 491.89, 1261.53 489.53 C 1263.50 487.17, 1264.18 485.76, 1265.07 483.11 C 1265.97 480.46, 1266.20 478.96, 1266.00 476.27 C 1265.80 473.58, 1265.25 472.06, 1264.09 469.65 C 1262.93 467.25, 1261.90 466.16, 1260.19 464.24 C 1258.48 462.31, 1257.42 461.43, 1255.54 460.03 C 1253.67 458.64, 1252.50 457.95, 1250.84 457.26 C 1249.18 456.58, 1248.41 456.68, 1247.25 456.62 C 1246.08 456.56, 1245.65 456.57, 1245.01 456.98 C 1244.37 457.38, 1244.07 457.89, 1244.03 458.65 C 1243.98 459.41, 1244.22 459.80, 1244.79 460.77 C 1245.35 461.74, 1245.69 462.37, 1246.86 463.50 C 1248.04 464.62, 1249.13 465.18, 1250.67 466.40 C 1252.20 467.61, 1253.15 468.22, 1254.55 469.58 C 1255.94 470.93, 1256.67 471.69, 1257.63 473.17 C 1258.60 474.66, 1259.09 475.43, 1259.36 476.99 C 1259.62 478.56, 1259.56 479.35, 1258.97 480.99 C 1258.37 482.64, 1257.83 483.47, 1256.37 485.23 C 1254.91 486.99, 1254.01 488.04, 1251.66 489.78 C 1249.32 491.53, 1247.84 492.44, 1244.66 493.94 C 1241.48 495.44, 1239.47 496.23, 1235.75 497.29 C 1232.04 498.35, 1229.95 498.82, 1226.09 499.23 C 1222.23 499.64, 1220.13 499.62, 1216.45 499.33 C 1212.77 499.05, 1210.79 498.68, 1207.68 497.79 C 1204.56 496.90, 1203.13 496.14, 1200.87 494.88 C 1198.61 493.61, 1197.74 492.91, 1196.38 491.47 C 1195.02 490.03, 1194.62 489.28, 1194.08 487.68 C 1193.53 486.08, 1193.46 485.19, 1193.67 483.48 C 1193.87 481.76, 1194.16 480.85, 1195.12 479.10 C 1196.07 477.35, 1196.82 476.40, 1198.43 474.72 C 1200.03 473.05, 1201.03 472.19, 1203.14 470.72 C 1205.24 469.25, 1206.55 468.50, 1208.95 467.38 C 1211.36 466.26, 1212.75 465.85, 1215.17 465.10 C 1217.59 464.36, 1218.92 464.04, 1221.06 463.66 C 1223.19 463.28, 1224.18 463.21, 1225.86 463.22 C 1227.54 463.22, 1228.18 463.54, 1229.45 463.69 C 1230.72 463.85, 1231.16 464.03, 1232.21 463.97 C 1233.26 463.91, 1233.87 464.05, 1234.70 463.39 C 1235.53 462.73, 1236.28 461.79, 1236.36 460.68" style="stroke: black; fill: black;"/><path d="M 1282.86,411.30 C 1281.96 411.83, 1281.78 412.44, 1281.32 413.73 C 1280.86 415.03, 1280.70 415.70, 1280.56 417.78 C 1280.42 419.85, 1280.32 421.26, 1280.61 424.11 C 1280.89 426.96, 1281.48 428.66, 1281.98 432.04 C 1282.48 435.42, 1282.64 437.28, 1283.08 441.03 C 1283.53 444.78, 1283.72 446.79, 1284.19 450.78 C 1284.66 454.77, 1284.92 456.92, 1285.45 460.99 C 1285.97 465.05, 1286.19 467.16, 1286.81 471.11 C 1287.42 475.07, 1287.77 477.09, 1288.51 480.77 C 1289.26 484.45, 1289.66 486.26, 1290.53 489.53 C 1291.39 492.80, 1291.73 494.40, 1292.83 497.11 C 1293.93 499.81, 1294.67 501.10, 1296.04 503.06 C 1297.41 505.02, 1298.30 505.91, 1299.67 506.92 C 1301.04 507.94, 1301.86 507.99, 1302.89 508.13 C 1303.91 508.27, 1304.33 508.01, 1304.82 507.62 C 1305.30 507.23, 1305.26 506.71, 1305.31 506.17 C 1305.36 505.63, 1305.30 505.62, 1305.07 504.91 C 1304.85 504.20, 1304.85 503.73, 1304.19 502.61 C 1303.53 501.50, 1302.74 501.00, 1301.76 499.34 C 1300.78 497.69, 1300.34 496.67, 1299.29 494.35 C 1298.24 492.02, 1297.56 490.67, 1296.52 487.70 C 1295.48 484.74, 1294.95 483.01, 1294.09 479.52 C 1293.22 476.03, 1292.84 474.08, 1292.19 470.24 C 1291.54 466.40, 1291.32 464.32, 1290.83 460.31 C 1290.35 456.31, 1290.12 454.17, 1289.79 450.22 C 1289.45 446.27, 1289.32 444.28, 1289.18 440.56 C 1289.04 436.83, 1289.03 434.96, 1289.09 431.59 C 1289.16 428.21, 1289.51 426.53, 1289.52 423.68 C 1289.52 420.83, 1289.49 419.41, 1289.13 417.33 C 1288.77 415.24, 1288.37 414.49, 1287.71 413.25 C 1287.06 412.00, 1286.83 411.49, 1285.86 411.10 C 1284.89 410.71, 1283.77 410.78, 1282.86 411.30" style="stroke: black; fill: black;"/><path d="M 1319.57,457.81 C 1318.73 458.55, 1318.72 459.27, 1318.42 460.74 C 1318.13 462.21, 1318.00 463.08, 1318.08 465.17 C 1318.16 467.25, 1318.42 468.66, 1318.82 471.15 C 1319.22 473.65, 1319.61 475.00, 1320.08 477.66 C 1320.56 480.31, 1320.72 481.70, 1321.20 484.43 C 1321.68 487.15, 1321.96 488.64, 1322.49 491.29 C 1323.02 493.95, 1323.19 495.33, 1323.83 497.69 C 1324.46 500.05, 1324.94 501.39, 1325.66 503.09 C 1326.38 504.80, 1326.69 505.33, 1327.43 506.20 C 1328.17 507.07, 1328.74 507.22, 1329.38 507.45 C 1330.02 507.68, 1330.31 507.49, 1330.64 507.36 C 1330.97 507.24, 1330.79 507.02, 1331.02 506.83 C 1331.25 506.63, 1331.44 506.84, 1331.77 506.38 C 1332.11 505.93, 1332.55 505.60, 1332.69 504.55 C 1332.83 503.50, 1332.75 502.87, 1332.48 501.14 C 1332.22 499.41, 1331.84 498.15, 1331.37 495.88 C 1330.90 493.62, 1330.60 492.36, 1330.12 489.82 C 1329.64 487.28, 1329.37 485.84, 1328.99 483.18 C 1328.61 480.52, 1328.48 479.18, 1328.22 476.53 C 1327.96 473.88, 1327.98 472.45, 1327.69 469.93 C 1327.40 467.41, 1327.28 466.02, 1326.77 463.93 C 1326.25 461.84, 1325.95 460.86, 1325.12 459.48 C 1324.28 458.10, 1323.71 457.37, 1322.60 457.04 C 1321.49 456.71, 1320.40 457.07, 1319.57 457.81" style="stroke: black; fill: black;"/><path d="M 1324.17,424.32 C 1325.14 425.03, 1325.99 425.08, 1326.45 425.07 C 1326.90 425.05, 1326.58 424.74, 1326.45 424.24 C 1326.32 423.74, 1326.17 423.47, 1325.78 422.56 C 1325.38 421.65, 1325.15 420.46, 1324.46 419.68 C 1323.77 418.91, 1323.04 418.75, 1322.32 418.68 C 1321.61 418.61, 1321.04 418.77, 1320.89 419.33 C 1320.75 419.90, 1320.96 420.50, 1321.61 421.50 C 1322.27 422.49, 1323.20 423.60, 1324.17 424.32" style="stroke: black; fill: black;"/><path d="M 1401.85,461.04 C 1402.21 459.91, 1402.02 458.96, 1401.29 457.59 C 1400.55 456.22, 1399.80 455.38, 1398.17 454.18 C 1396.54 452.98, 1395.35 452.33, 1393.11 451.59 C 1390.88 450.85, 1389.53 450.72, 1386.99 450.48 C 1384.45 450.24, 1383.20 450.20, 1380.44 450.39 C 1377.68 450.58, 1376.12 450.71, 1373.18 451.43 C 1370.24 452.15, 1368.68 452.72, 1365.74 453.98 C 1362.79 455.24, 1361.23 456.00, 1358.47 457.73 C 1355.71 459.45, 1354.34 460.40, 1351.95 462.59 C 1349.57 464.78, 1348.32 466.00, 1346.55 468.69 C 1344.79 471.38, 1343.99 472.99, 1343.14 476.03 C 1342.30 479.07, 1342.14 480.76, 1342.34 483.88 C 1342.53 487.00, 1342.76 488.68, 1344.11 491.63 C 1345.46 494.58, 1346.57 496.11, 1349.10 498.63 C 1351.62 501.15, 1353.27 502.37, 1356.74 504.25 C 1360.21 506.13, 1362.29 506.83, 1366.46 508.02 C 1370.62 509.20, 1373.00 509.64, 1377.56 510.18 C 1382.12 510.72, 1384.56 510.85, 1389.28 510.72 C 1393.99 510.59, 1396.58 510.26, 1401.14 509.53 C 1405.70 508.80, 1408.01 508.28, 1412.07 507.07 C 1416.13 505.87, 1418.09 505.14, 1421.44 503.49 C 1424.78 501.84, 1426.46 501.03, 1428.78 498.81 C 1431.10 496.59, 1431.91 495.11, 1433.02 492.38 C 1434.13 489.66, 1434.39 488.09, 1434.32 485.19 C 1434.25 482.30, 1433.83 480.69, 1432.66 477.90 C 1431.50 475.10, 1430.54 473.66, 1428.49 471.21 C 1426.44 468.76, 1425.01 467.65, 1422.43 465.66 C 1419.85 463.66, 1418.46 462.47, 1415.59 461.25 C 1412.72 460.03, 1409.91 459.25, 1408.09 459.57 C 1406.27 459.90, 1405.70 461.28, 1406.48 462.88 C 1407.25 464.47, 1409.71 465.82, 1411.97 467.54 C 1414.23 469.27, 1415.66 469.78, 1417.77 471.51 C 1419.88 473.25, 1420.91 474.33, 1422.54 476.24 C 1424.16 478.14, 1424.90 479.16, 1425.91 481.04 C 1426.93 482.93, 1427.37 483.86, 1427.63 485.66 C 1427.88 487.45, 1427.87 488.33, 1427.19 490.02 C 1426.51 491.72, 1425.91 492.45, 1424.22 494.13 C 1422.53 495.81, 1421.48 496.83, 1418.73 498.44 C 1415.99 500.04, 1414.18 500.89, 1410.50 502.14 C 1406.82 503.40, 1404.61 503.97, 1400.34 504.71 C 1396.07 505.46, 1393.58 505.77, 1389.16 505.86 C 1384.74 505.94, 1382.44 505.77, 1378.22 505.15 C 1374.01 504.53, 1371.77 503.99, 1368.09 502.75 C 1364.40 501.51, 1362.61 500.71, 1359.80 498.96 C 1356.98 497.20, 1355.83 496.02, 1354.01 493.97 C 1352.18 491.91, 1351.60 490.78, 1350.68 488.68 C 1349.76 486.58, 1349.52 485.59, 1349.41 483.47 C 1349.30 481.34, 1349.48 480.20, 1350.13 478.06 C 1350.79 475.91, 1351.36 474.77, 1352.71 472.74 C 1354.05 470.72, 1354.95 469.68, 1356.86 467.92 C 1358.77 466.17, 1359.93 465.34, 1362.27 463.96 C 1364.60 462.59, 1366.00 461.97, 1368.55 461.04 C 1371.10 460.10, 1372.51 459.85, 1375.01 459.30 C 1377.51 458.76, 1378.82 458.50, 1381.05 458.31 C 1383.28 458.11, 1384.31 458.09, 1386.16 458.32 C 1388.01 458.55, 1388.83 458.85, 1390.30 459.44 C 1391.78 460.03, 1392.29 460.59, 1393.53 461.27 C 1394.76 461.95, 1395.29 462.43, 1396.47 462.83 C 1397.66 463.22, 1398.38 463.59, 1399.45 463.23 C 1400.53 462.88, 1401.48 462.17, 1401.85 461.04" style="stroke: black; fill: black;"/></svg>