<svg xmlns="http://www.w3.org/2000/svg" id="canvas" viewBox="125.197 411.233 618.140 111.404"><path d="M 184.84,416.70 C 184.61 416.06, 184.20 415.70, 183.27 415.23 C 182.34 414.76, 181.67 414.51, 180.19 414.35 C 178.71 414.18, 177.76 414.19, 175.86 414.41 C 173.97 414.62, 172.94 414.81, 170.72 415.42 C 168.51 416.03, 167.22 416.45, 164.79 417.48 C 162.36 418.51, 161.00 419.20, 158.57 420.58 C 156.14 421.97, 154.83 422.79, 152.64 424.39 C 150.46 425.99, 149.29 426.87, 147.63 428.58 C 145.98 430.29, 145.21 431.20, 144.36 432.96 C 143.52 434.72, 143.30 435.69, 143.40 437.39 C 143.50 439.08, 143.84 439.99, 144.88 441.45 C 145.92 442.90, 146.76 443.55, 148.61 444.68 C 150.46 445.80, 151.70 446.23, 154.15 447.07 C 156.60 447.92, 158.08 448.18, 160.87 448.89 C 163.65 449.60, 165.20 449.84, 168.08 450.62 C 170.96 451.41, 172.52 451.85, 175.27 452.81 C 178.02 453.78, 179.43 454.35, 181.83 455.45 C 184.23 456.56, 185.43 457.14, 187.28 458.35 C 189.13 459.55, 189.92 460.21, 191.09 461.49 C 192.27 462.77, 192.68 463.44, 193.16 464.75 C 193.65 466.05, 193.72 466.69, 193.53 468.01 C 193.33 469.32, 193.07 469.98, 192.18 471.33 C 191.28 472.68, 190.64 473.41, 189.05 474.76 C 187.46 476.11, 186.43 476.79, 184.22 478.09 C 182.00 479.38, 180.69 480.11, 177.96 481.24 C 175.23 482.36, 173.62 482.93, 170.58 483.72 C 167.53 484.51, 165.86 484.81, 162.73 485.19 C 159.60 485.57, 157.95 485.65, 154.91 485.62 C 151.88 485.58, 150.32 485.41, 147.57 485.01 C 144.83 484.60, 143.43 484.27, 141.18 483.58 C 138.94 482.89, 137.91 482.46, 136.33 481.55 C 134.76 480.63, 134.17 480.08, 133.33 478.99 C 132.49 477.90, 132.25 477.34, 132.13 476.08 C 132.02 474.82, 132.19 474.18, 132.74 472.71 C 133.30 471.24, 134.01 470.29, 134.91 468.73 C 135.81 467.17, 136.48 466.34, 137.23 464.90 C 137.98 463.47, 138.63 462.45, 138.65 461.55 C 138.68 460.65, 138.30 460.25, 137.37 460.40 C 136.45 460.56, 135.38 461.17, 134.04 462.34 C 132.70 463.50, 131.76 464.38, 130.66 466.22 C 129.55 468.06, 128.93 469.45, 128.50 471.53 C 128.07 473.62, 128.12 474.74, 128.51 476.66 C 128.89 478.57, 129.28 479.48, 130.44 481.11 C 131.59 482.74, 132.37 483.52, 134.27 484.80 C 136.16 486.08, 137.36 486.66, 139.90 487.53 C 142.45 488.39, 143.99 488.72, 146.99 489.13 C 149.99 489.53, 151.66 489.55, 154.90 489.53 C 158.14 489.51, 159.86 489.42, 163.19 489.04 C 166.51 488.65, 168.26 488.36, 171.53 487.60 C 174.79 486.85, 176.51 486.35, 179.51 485.26 C 182.52 484.18, 184.04 483.60, 186.56 482.18 C 189.08 480.76, 190.26 479.90, 192.10 478.15 C 193.95 476.41, 194.76 475.40, 195.80 473.45 C 196.84 471.51, 197.13 470.41, 197.30 468.42 C 197.47 466.43, 197.29 465.39, 196.63 463.50 C 195.97 461.61, 195.41 460.68, 194.00 458.97 C 192.60 457.26, 191.68 456.45, 189.61 454.96 C 187.55 453.47, 186.27 452.74, 183.68 451.50 C 181.10 450.27, 179.56 449.81, 176.69 448.79 C 173.81 447.78, 172.21 447.34, 169.30 446.43 C 166.39 445.53, 164.87 445.08, 162.15 444.27 C 159.43 443.45, 158.00 443.07, 155.71 442.35 C 153.41 441.63, 152.29 441.30, 150.67 440.65 C 149.04 440.00, 148.41 439.77, 147.58 439.09 C 146.76 438.41, 146.57 438.11, 146.56 437.25 C 146.55 436.38, 146.73 435.89, 147.53 434.78 C 148.33 433.66, 149.01 432.99, 150.56 431.68 C 152.11 430.36, 153.22 429.56, 155.29 428.18 C 157.36 426.80, 158.63 426.02, 160.91 424.78 C 163.19 423.53, 164.47 422.89, 166.69 421.95 C 168.90 421.01, 170.06 420.59, 172.00 420.07 C 173.94 419.54, 174.80 419.47, 176.40 419.31 C 178.00 419.14, 178.74 419.28, 179.98 419.24 C 181.23 419.19, 181.73 419.22, 182.61 419.06 C 183.50 418.90, 183.96 418.90, 184.40 418.43 C 184.85 417.96, 185.06 417.34, 184.84 416.70" style="stroke: black; fill: black;"/><path d="M 205.03,419.54 C 204.49 419.79, 204.34 420.08, 203.99 420.90 C 203.65 421.72, 203.43 422.21, 203.29 423.64 C 203.15 425.07, 203.23 426.04, 203.30 428.06 C 203.37 430.08, 203.51 431.27, 203.65 433.73 C 203.80 436.19, 203.90 437.60, 204.04 440.38 C 204.18 443.15, 204.23 444.67, 204.34 447.61 C 204.45 450.56, 204.47 452.16, 204.60 455.09 C 204.73 458.02, 204.79 459.54, 204.99 462.27 C 205.19 465.00, 205.31 466.34, 205.61 468.72 C 205.91 471.10, 206.11 472.27, 206.49 474.16 C 206.86 476.05, 207.08 476.92, 207.50 478.19 C 207.93 479.47, 208.15 479.90, 208.59 480.52 C 209.03 481.15, 209.36 481.18, 209.71 481.33 C 210.06 481.47, 210.19 481.30, 210.35 481.25 C 210.50 481.19, 210.38 481.13, 210.50 481.05 C 210.61 480.96, 210.75 481.08, 210.91 480.80 C 211.08 480.52, 211.31 480.35, 211.33 479.66 C 211.36 478.97, 211.22 478.59, 211.04 477.36 C 210.87 476.12, 210.72 475.31, 210.47 473.49 C 210.22 471.67, 210.02 470.56, 209.80 468.26 C 209.58 465.95, 209.52 464.64, 209.35 461.97 C 209.18 459.30, 209.07 457.80, 208.96 454.91 C 208.85 452.02, 208.81 450.45, 208.79 447.52 C 208.77 444.58, 208.88 443.04, 208.86 440.24 C 208.84 437.44, 208.76 436.00, 208.70 433.52 C 208.64 431.04, 208.65 429.83, 208.56 427.84 C 208.47 425.84, 208.42 424.91, 208.23 423.54 C 208.03 422.17, 207.89 421.77, 207.58 420.99 C 207.27 420.20, 207.19 419.91, 206.68 419.62 C 206.17 419.33, 205.57 419.28, 205.03 419.54" style="stroke: black; fill: black;"/><path d="M 190.95,459.82 C 191.40 460.13, 191.58 460.06, 192.28 460.06 C 192.98 460.06, 193.29 460.03, 194.44 459.82 C 195.59 459.61, 196.29 459.36, 198.01 459.01 C 199.73 458.66, 200.82 458.41, 203.05 458.07 C 205.27 457.74, 206.64 457.59, 209.15 457.35 C 211.66 457.12, 213.06 456.98, 215.62 456.89 C 218.17 456.81, 219.51 456.84, 221.92 456.93 C 224.32 457.03, 225.57 457.19, 227.65 457.38 C 229.72 457.57, 230.76 457.79, 232.29 457.88 C 233.82 457.97, 234.38 457.92, 235.31 457.82 C 236.23 457.71, 236.55 457.63, 236.91 457.33 C 237.27 457.03, 237.32 456.71, 237.10 456.31 C 236.88 455.90, 236.63 455.75, 235.80 455.30 C 234.98 454.84, 234.49 454.47, 232.96 454.02 C 231.43 453.58, 230.31 453.38, 228.15 453.07 C 225.99 452.76, 224.68 452.64, 222.16 452.47 C 219.63 452.31, 218.22 452.25, 215.54 452.25 C 212.87 452.25, 211.42 452.32, 208.79 452.47 C 206.15 452.61, 204.75 452.71, 202.37 452.99 C 199.99 453.27, 198.80 453.44, 196.90 453.87 C 195.00 454.31, 194.12 454.56, 192.86 455.17 C 191.61 455.78, 191.19 456.23, 190.62 456.90 C 190.05 457.57, 189.95 457.91, 190.02 458.50 C 190.08 459.08, 190.49 459.51, 190.95 459.82" style="stroke: black; fill: black;"/><path d="M 256.81,458.16 C 257.04 457.61, 257.06 457.21, 256.70 456.56 C 256.34 455.91, 255.96 455.40, 254.99 454.91 C 254.02 454.43, 253.27 454.20, 251.87 454.13 C 250.47 454.07, 249.60 454.19, 247.99 454.61 C 246.38 455.03, 245.47 455.35, 243.80 456.23 C 242.13 457.12, 241.18 457.74, 239.64 459.03 C 238.09 460.32, 237.30 461.09, 236.08 462.68 C 234.86 464.26, 234.22 465.20, 233.55 466.97 C 232.88 468.74, 232.63 469.80, 232.72 471.54 C 232.82 473.28, 233.12 474.19, 234.03 475.66 C 234.95 477.14, 235.63 477.91, 237.30 478.92 C 238.96 479.94, 240.12 480.39, 242.36 480.76 C 244.59 481.12, 245.98 481.03, 248.48 480.76 C 250.98 480.49, 252.35 480.17, 254.85 479.42 C 257.35 478.67, 258.71 478.17, 260.97 477.02 C 263.24 475.86, 264.41 475.13, 266.18 473.65 C 267.96 472.17, 268.77 471.30, 269.86 469.62 C 270.95 467.94, 271.34 466.98, 271.62 465.26 C 271.90 463.53, 271.79 462.58, 271.28 460.99 C 270.76 459.41, 270.25 458.55, 269.06 457.32 C 267.87 456.09, 266.95 455.58, 265.33 454.84 C 263.70 454.10, 262.70 453.86, 260.93 453.62 C 259.16 453.38, 258.10 453.36, 256.49 453.65 C 254.88 453.94, 253.88 454.34, 252.86 455.09 C 251.84 455.84, 251.49 456.70, 251.37 457.40 C 251.26 458.10, 251.72 458.42, 252.29 458.60 C 252.86 458.78, 253.29 458.38, 254.22 458.30 C 255.16 458.22, 255.77 458.19, 256.98 458.18 C 258.20 458.16, 259.00 458.05, 260.32 458.22 C 261.64 458.39, 262.40 458.60, 263.59 459.03 C 264.78 459.46, 265.42 459.72, 266.27 460.36 C 267.12 461.00, 267.46 461.39, 267.83 462.23 C 268.19 463.08, 268.32 463.57, 268.09 464.60 C 267.86 465.62, 267.58 466.22, 266.67 467.36 C 265.76 468.50, 265.09 469.17, 263.55 470.28 C 262.01 471.40, 261.00 472.02, 258.99 472.94 C 256.99 473.85, 255.75 474.27, 253.54 474.87 C 251.33 475.47, 250.07 475.70, 247.95 475.95 C 245.83 476.19, 244.69 476.23, 242.96 476.09 C 241.22 475.95, 240.44 475.72, 239.27 475.23 C 238.10 474.74, 237.66 474.38, 237.10 473.63 C 236.55 472.89, 236.42 472.49, 236.49 471.50 C 236.56 470.51, 236.82 469.87, 237.45 468.68 C 238.08 467.49, 238.58 466.74, 239.62 465.56 C 240.66 464.37, 241.35 463.76, 242.64 462.76 C 243.93 461.76, 244.76 461.26, 246.08 460.57 C 247.40 459.89, 248.10 459.63, 249.22 459.34 C 250.35 459.04, 250.89 459.09, 251.71 459.10 C 252.52 459.11, 252.77 459.30, 253.30 459.38 C 253.84 459.46, 253.94 459.52, 254.38 459.51 C 254.82 459.49, 255.03 459.57, 255.51 459.30 C 256.00 459.03, 256.57 458.71, 256.81 458.16" style="stroke: black; fill: black;"/><path d="M 280.06,460.16 C 279.52 460.52, 279.37 460.98, 279.12 461.79 C 278.87 462.61, 278.87 463.11, 278.82 464.24 C 278.77 465.37, 278.80 466.11, 278.88 467.43 C 278.95 468.76, 279.10 469.56, 279.19 470.86 C 279.27 472.17, 279.19 472.87, 279.31 473.94 C 279.44 475.00, 279.44 475.59, 279.82 476.18 C 280.20 476.78, 280.65 476.98, 281.20 476.91 C 281.75 476.85, 282.19 476.61, 282.57 475.86 C 282.94 475.12, 283.07 474.48, 283.10 473.19 C 283.13 471.91, 282.89 470.97, 282.72 469.43 C 282.55 467.88, 282.31 466.98, 282.25 465.48 C 282.19 463.98, 282.20 463.22, 282.41 461.92 C 282.61 460.62, 282.81 460.00, 283.26 458.98 C 283.71 457.96, 283.98 457.54, 284.66 456.82 C 285.34 456.09, 285.75 455.82, 286.66 455.36 C 287.57 454.91, 288.06 454.74, 289.21 454.54 C 290.35 454.34, 290.97 454.29, 292.39 454.34 C 293.81 454.40, 294.66 454.56, 296.31 454.80 C 297.96 455.04, 299.00 455.33, 300.66 455.53 C 302.31 455.73, 303.23 455.83, 304.60 455.81 C 305.98 455.80, 306.85 455.85, 307.51 455.47 C 308.18 455.09, 308.34 454.59, 307.93 453.92 C 307.52 453.25, 306.74 452.75, 305.46 452.12 C 304.19 451.49, 303.26 451.20, 301.54 450.77 C 299.83 450.35, 298.75 450.18, 296.91 449.99 C 295.07 449.79, 294.08 449.72, 292.35 449.80 C 290.63 449.87, 289.80 449.97, 288.27 450.37 C 286.74 450.77, 286.01 451.03, 284.71 451.78 C 283.41 452.52, 282.79 453.02, 281.77 454.10 C 280.75 455.19, 280.34 455.83, 279.63 457.21 C 278.91 458.59, 278.63 459.40, 278.20 461.01 C 277.77 462.62, 277.69 463.53, 277.48 465.27 C 277.27 467.01, 277.17 467.98, 277.16 469.70 C 277.15 471.42, 277.09 472.46, 277.44 473.87 C 277.79 475.27, 278.18 475.97, 278.91 476.72 C 279.64 477.47, 280.27 477.64, 281.09 477.61 C 281.91 477.59, 282.44 477.32, 283.00 476.62 C 283.55 475.93, 283.65 475.30, 283.87 474.13 C 284.10 472.97, 284.05 472.20, 284.11 470.81 C 284.17 469.42, 284.21 468.59, 284.16 467.20 C 284.12 465.81, 284.11 465.01, 283.89 463.85 C 283.66 462.69, 283.45 462.17, 283.05 461.40 C 282.64 460.63, 282.45 460.27, 281.85 460.02 C 281.26 459.77, 280.61 459.81, 280.06 460.16" style="stroke: black; fill: black;"/><path d="M 316.18,455.13 C 315.77 455.51, 315.68 455.76, 315.65 456.41 C 315.63 457.06, 315.65 457.52, 316.05 458.38 C 316.46 459.24, 316.82 459.75, 317.67 460.72 C 318.52 461.69, 319.12 462.27, 320.28 463.22 C 321.44 464.18, 322.15 464.64, 323.48 465.50 C 324.80 466.36, 325.46 466.78, 326.89 467.52 C 328.32 468.27, 329.09 468.69, 330.63 469.23 C 332.17 469.77, 333.03 469.98, 334.60 470.24 C 336.17 470.51, 336.93 470.58, 338.49 470.55 C 340.05 470.52, 340.88 470.48, 342.41 470.07 C 343.93 469.67, 344.76 469.29, 346.11 468.52 C 347.45 467.75, 348.03 467.21, 349.12 466.20 C 350.21 465.19, 350.73 464.60, 351.56 463.48 C 352.39 462.35, 352.76 461.65, 353.27 460.59 C 353.79 459.52, 354.02 458.99, 354.15 458.15 C 354.28 457.31, 354.29 456.91, 353.93 456.39 C 353.57 455.88, 353.02 455.55, 352.35 455.58 C 351.68 455.62, 351.09 455.83, 350.56 456.56 C 350.03 457.28, 349.94 457.89, 349.69 459.22 C 349.44 460.55, 349.48 461.38, 349.30 463.21 C 349.13 465.05, 349.04 466.15, 348.81 468.37 C 348.59 470.59, 348.48 471.84, 348.17 474.32 C 347.85 476.79, 347.69 478.11, 347.24 480.74 C 346.79 483.36, 346.52 484.78, 345.91 487.45 C 345.30 490.11, 344.96 491.52, 344.19 494.05 C 343.43 496.58, 343.01 497.83, 342.09 500.09 C 341.16 502.35, 340.64 503.44, 339.56 505.34 C 338.49 507.23, 337.89 508.11, 336.70 509.59 C 335.52 511.06, 334.88 511.68, 333.63 512.69 C 332.38 513.70, 331.74 514.07, 330.46 514.63 C 329.19 515.19, 328.51 515.34, 327.24 515.47 C 325.98 515.60, 325.34 515.52, 324.13 515.28 C 322.91 515.03, 322.25 514.81, 321.19 514.26 C 320.12 513.72, 319.65 513.33, 318.79 512.56 C 317.93 511.78, 317.48 511.29, 316.90 510.38 C 316.32 509.47, 316.07 509.01, 315.88 508.00 C 315.70 506.99, 315.75 506.46, 315.97 505.33 C 316.20 504.21, 316.40 503.56, 317.02 502.37 C 317.63 501.18, 318.03 500.54, 319.06 499.38 C 320.09 498.21, 320.71 497.61, 322.16 496.56 C 323.60 495.51, 324.44 495.02, 326.26 494.12 C 328.08 493.23, 329.18 492.83, 331.25 492.09 C 333.31 491.34, 334.42 490.96, 336.59 490.40 C 338.76 489.83, 340.07 489.64, 342.10 489.27 C 344.14 488.91, 345.00 488.87, 346.75 488.56 C 348.51 488.25, 350.03 488.27, 350.87 487.75 C 351.71 487.22, 351.79 486.51, 350.95 485.92 C 350.10 485.32, 348.54 484.96, 346.65 484.76 C 344.76 484.55, 343.73 484.66, 341.49 484.89 C 339.25 485.12, 337.82 485.33, 335.46 485.91 C 333.10 486.49, 331.93 486.96, 329.68 487.78 C 327.43 488.60, 326.26 488.98, 324.22 490.01 C 322.17 491.03, 321.17 491.62, 319.45 492.90 C 317.74 494.18, 316.92 494.91, 315.64 496.42 C 314.36 497.92, 313.81 498.78, 313.04 500.43 C 312.27 502.07, 312.03 502.97, 311.79 504.64 C 311.56 506.31, 311.55 507.18, 311.85 508.76 C 312.16 510.35, 312.51 511.17, 313.32 512.55 C 314.13 513.94, 314.73 514.59, 315.92 515.69 C 317.11 516.79, 317.79 517.31, 319.28 518.05 C 320.77 518.79, 321.69 519.11, 323.37 519.40 C 325.06 519.69, 325.98 519.71, 327.72 519.48 C 329.45 519.25, 330.37 519.00, 332.05 518.26 C 333.73 517.53, 334.54 517.02, 336.10 515.81 C 337.66 514.60, 338.44 513.86, 339.85 512.19 C 341.27 510.51, 341.94 509.52, 343.18 507.44 C 344.42 505.35, 344.99 504.18, 346.04 501.77 C 347.09 499.35, 347.57 498.04, 348.43 495.38 C 349.30 492.73, 349.69 491.26, 350.36 488.50 C 351.03 485.73, 351.30 484.26, 351.81 481.56 C 352.31 478.86, 352.50 477.50, 352.89 474.98 C 353.28 472.47, 353.44 471.21, 353.76 468.98 C 354.07 466.74, 354.22 465.64, 354.47 463.82 C 354.73 462.01, 354.95 461.22, 355.03 459.90 C 355.12 458.57, 355.20 458.04, 354.90 457.20 C 354.60 456.36, 354.18 456.01, 353.53 455.68 C 352.89 455.36, 352.30 455.38, 351.69 455.57 C 351.07 455.76, 350.89 456.04, 350.44 456.64 C 349.99 457.24, 349.91 457.72, 349.42 458.57 C 348.94 459.41, 348.66 459.97, 348.01 460.87 C 347.35 461.76, 346.98 462.27, 346.16 463.05 C 345.34 463.84, 344.90 464.20, 343.92 464.79 C 342.94 465.38, 342.37 465.66, 341.27 465.98 C 340.18 466.30, 339.61 466.39, 338.44 466.39 C 337.26 466.39, 336.66 466.26, 335.40 465.99 C 334.14 465.72, 333.43 465.52, 332.15 465.04 C 330.87 464.56, 330.21 464.26, 329.01 463.59 C 327.81 462.92, 327.23 462.52, 326.17 461.69 C 325.11 460.86, 324.60 460.36, 323.70 459.46 C 322.81 458.55, 322.43 457.95, 321.70 457.15 C 320.98 456.34, 320.67 455.94, 320.09 455.45 C 319.51 454.96, 319.29 454.88, 318.81 454.69 C 318.33 454.50, 318.21 454.42, 317.68 454.51 C 317.15 454.59, 316.58 454.75, 316.18 455.13" style="stroke: black; fill: black;"/><path d="M 439.60,435.19 C 439.11 435.66, 439.00 436.17, 438.85 437.32 C 438.70 438.47, 438.69 439.21, 438.85 440.95 C 439.02 442.69, 439.33 443.83, 439.66 446.00 C 439.99 448.18, 440.22 449.38, 440.50 451.82 C 440.78 454.26, 440.89 455.58, 441.06 458.19 C 441.23 460.80, 441.24 462.21, 441.35 464.87 C 441.47 467.53, 441.52 468.99, 441.64 471.49 C 441.76 474.00, 441.86 475.24, 441.97 477.40 C 442.07 479.56, 442.06 480.61, 442.19 482.29 C 442.31 483.96, 442.31 484.80, 442.60 485.78 C 442.88 486.76, 443.17 487.03, 443.61 487.19 C 444.05 487.36, 444.38 486.98, 444.79 486.60 C 445.20 486.21, 445.72 485.70, 445.65 485.27 C 445.58 484.84, 445.20 484.43, 444.42 484.45 C 443.64 484.47, 442.36 484.89, 441.74 485.37 C 441.11 485.85, 441.05 486.40, 441.29 486.86 C 441.54 487.31, 442.26 487.50, 442.98 487.65 C 443.69 487.80, 444.27 487.96, 444.88 487.59 C 445.48 487.21, 445.74 486.84, 446.01 485.76 C 446.28 484.68, 446.20 483.88, 446.24 482.18 C 446.28 480.48, 446.24 479.44, 446.21 477.27 C 446.18 475.10, 446.15 473.84, 446.09 471.33 C 446.03 468.82, 446.00 467.38, 445.92 464.71 C 445.84 462.03, 445.80 460.60, 445.68 457.94 C 445.56 455.28, 445.49 453.92, 445.33 451.39 C 445.16 448.85, 445.15 447.55, 444.86 445.28 C 444.58 443.01, 444.34 441.77, 443.89 440.05 C 443.43 438.33, 443.09 437.70, 442.57 436.68 C 442.05 435.66, 441.88 435.25, 441.29 434.95 C 440.69 434.65, 440.09 434.71, 439.60 435.19" style="stroke: black; fill: black;"/><path d="M 422.68,436.44 C 423.18 436.04, 423.17 435.52, 423.39 434.83 C 423.61 434.14, 423.48 433.76, 423.79 432.99 C 424.09 432.22, 424.11 431.76, 424.91 430.98 C 425.71 430.19, 426.28 429.76, 427.79 429.05 C 429.30 428.34, 430.27 427.97, 432.45 427.44 C 434.63 426.91, 436.00 426.68, 438.69 426.42 C 441.39 426.15, 442.99 426.00, 445.93 426.12 C 448.87 426.24, 450.57 426.43, 453.41 427.02 C 456.25 427.60, 457.72 428.11, 460.13 429.04 C 462.53 429.97, 463.66 430.53, 465.44 431.68 C 467.22 432.83, 468.02 433.51, 469.02 434.79 C 470.03 436.07, 470.27 436.74, 470.47 438.08 C 470.66 439.42, 470.53 440.10, 470.01 441.49 C 469.49 442.89, 469.02 443.64, 467.86 445.05 C 466.70 446.46, 465.90 447.21, 464.21 448.55 C 462.52 449.88, 461.45 450.58, 459.40 451.74 C 457.36 452.90, 456.12 453.45, 453.97 454.36 C 451.81 455.27, 450.57 455.65, 448.62 456.28 C 446.66 456.90, 445.68 457.10, 444.19 457.48 C 442.69 457.86, 441.96 457.93, 441.15 458.17 C 440.34 458.41, 440.18 458.51, 440.13 458.69 C 440.08 458.87, 440.63 459.16, 440.92 459.05 C 441.20 458.94, 441.72 458.63, 441.55 458.14 C 441.39 457.64, 440.65 456.69, 440.09 456.56 C 439.54 456.43, 439.02 456.84, 438.75 457.48 C 438.49 458.12, 438.34 458.99, 438.78 459.77 C 439.23 460.56, 439.77 461.09, 440.99 461.43 C 442.21 461.76, 443.12 461.66, 444.88 461.46 C 446.65 461.27, 447.67 461.04, 449.83 460.47 C 451.99 459.91, 453.32 459.56, 455.70 458.63 C 458.08 457.70, 459.42 457.12, 461.72 455.82 C 464.01 454.53, 465.22 453.79, 467.16 452.16 C 469.10 450.54, 470.08 449.62, 471.41 447.71 C 472.74 445.81, 473.28 444.70, 473.81 442.65 C 474.34 440.61, 474.41 439.50, 474.06 437.49 C 473.70 435.47, 473.31 434.41, 472.05 432.58 C 470.78 430.76, 469.81 429.87, 467.74 428.36 C 465.68 426.85, 464.42 426.13, 461.72 425.03 C 459.03 423.93, 457.38 423.52, 454.28 422.87 C 451.17 422.22, 449.38 422.02, 446.19 421.77 C 442.99 421.53, 441.29 421.45, 438.31 421.65 C 435.33 421.85, 433.80 422.11, 431.28 422.76 C 428.77 423.40, 427.65 423.87, 425.71 424.87 C 423.78 425.87, 422.87 426.44, 421.61 427.77 C 420.36 429.10, 419.87 430.07, 419.43 431.51 C 418.98 432.95, 419.10 433.91, 419.39 434.97 C 419.67 436.04, 420.19 436.54, 420.85 436.84 C 421.51 437.13, 422.17 436.85, 422.68 436.44" style="stroke: black; fill: black;"/><path d="M 489.98,470.46 C 490.33 470.02, 490.43 469.64, 490.18 468.96 C 489.94 468.27, 489.68 467.64, 488.76 467.05 C 487.85 466.45, 487.07 466.17, 485.61 465.99 C 484.16 465.80, 483.31 465.84, 481.50 466.12 C 479.69 466.40, 478.59 466.67, 476.55 467.37 C 474.51 468.07, 473.31 468.55, 471.31 469.63 C 469.32 470.71, 468.23 471.41, 466.56 472.78 C 464.90 474.14, 464.05 474.95, 462.98 476.47 C 461.90 477.99, 461.49 478.83, 461.19 480.38 C 460.90 481.93, 460.95 482.82, 461.50 484.21 C 462.05 485.59, 462.59 486.34, 463.94 487.30 C 465.29 488.25, 466.29 488.64, 468.24 488.97 C 470.20 489.31, 471.43 489.27, 473.70 488.99 C 475.98 488.71, 477.26 488.33, 479.63 487.58 C 482.01 486.83, 483.31 486.35, 485.58 485.24 C 487.85 484.13, 489.04 483.41, 490.98 482.04 C 492.93 480.66, 493.87 479.84, 495.32 478.35 C 496.77 476.86, 497.38 476.07, 498.22 474.60 C 499.06 473.13, 499.33 472.37, 499.52 471.00 C 499.71 469.62, 499.65 468.72, 499.17 467.73 C 498.69 466.75, 497.81 466.20, 497.12 466.08 C 496.43 465.97, 495.91 466.63, 495.73 467.17 C 495.55 467.71, 496.13 468.14, 496.22 468.77 C 496.31 469.40, 496.40 469.57, 496.16 470.32 C 495.93 471.08, 495.78 471.55, 495.03 472.55 C 494.28 473.55, 493.73 474.16, 492.41 475.32 C 491.10 476.47, 490.23 477.19, 488.47 478.34 C 486.71 479.48, 485.65 480.11, 483.60 481.03 C 481.55 481.95, 480.33 482.33, 478.23 482.95 C 476.12 483.56, 474.95 483.82, 473.06 484.09 C 471.16 484.37, 470.20 484.36, 468.76 484.32 C 467.31 484.28, 466.68 484.18, 465.82 483.91 C 464.97 483.63, 464.73 483.47, 464.48 482.95 C 464.22 482.42, 464.21 482.07, 464.54 481.28 C 464.87 480.50, 465.17 480.00, 466.13 479.03 C 467.08 478.06, 467.83 477.43, 469.31 476.43 C 470.79 475.42, 471.77 474.85, 473.55 474.01 C 475.32 473.17, 476.43 472.80, 478.19 472.22 C 479.95 471.64, 480.95 471.37, 482.34 471.11 C 483.73 470.84, 484.25 470.87, 485.13 470.91 C 486.01 470.95, 486.25 471.25, 486.75 471.32 C 487.24 471.39, 487.27 471.30, 487.61 471.27 C 487.95 471.24, 487.99 471.33, 488.46 471.17 C 488.94 471.01, 489.64 470.91, 489.98 470.46" style="stroke: black; fill: black;"/><path d="M 509.25,473.24 C 508.76 473.66, 508.73 474.08, 508.58 474.85 C 508.43 475.63, 508.40 476.14, 508.50 477.13 C 508.59 478.11, 508.82 478.76, 509.07 479.80 C 509.32 480.84, 509.34 481.42, 509.75 482.32 C 510.15 483.22, 510.42 483.77, 511.11 484.29 C 511.81 484.82, 512.37 484.95, 513.22 484.94 C 514.07 484.92, 514.60 484.77, 515.35 484.21 C 516.10 483.66, 516.48 483.17, 516.97 482.16 C 517.45 481.15, 517.44 480.36, 517.78 479.15 C 518.11 477.93, 518.20 477.25, 518.64 476.09 C 519.09 474.93, 519.38 474.35, 520.01 473.36 C 520.63 472.36, 521.01 471.86, 521.77 471.09 C 522.52 470.33, 522.91 470.02, 523.79 469.52 C 524.67 469.01, 525.18 468.87, 526.17 468.57 C 527.16 468.27, 527.79 468.26, 528.74 468.02 C 529.68 467.79, 530.13 467.71, 530.90 467.39 C 531.67 467.08, 532.25 466.94, 532.59 466.43 C 532.93 465.91, 532.98 465.33, 532.60 464.80 C 532.23 464.28, 531.63 464.03, 530.71 463.80 C 529.79 463.57, 529.20 463.53, 528.01 463.65 C 526.82 463.77, 526.04 463.94, 524.77 464.40 C 523.50 464.86, 522.84 465.22, 521.65 465.95 C 520.47 466.68, 519.90 467.08, 518.85 468.05 C 517.79 469.03, 517.27 469.63, 516.37 470.82 C 515.46 472.02, 515.08 472.71, 514.34 474.02 C 513.60 475.33, 513.21 476.08, 512.67 477.37 C 512.13 478.66, 511.84 479.41, 511.66 480.46 C 511.48 481.52, 511.56 482.02, 511.79 482.67 C 512.02 483.31, 512.36 483.55, 512.81 483.67 C 513.25 483.78, 513.67 483.69, 514.02 483.24 C 514.36 482.79, 514.46 482.31, 514.52 481.40 C 514.58 480.49, 514.51 479.78, 514.31 478.69 C 514.11 477.59, 513.88 476.89, 513.51 475.93 C 513.15 474.98, 512.98 474.54, 512.49 473.90 C 511.99 473.26, 511.68 472.87, 511.03 472.74 C 510.39 472.61, 509.74 472.82, 509.25 473.24" style="stroke: black; fill: black;"/><path d="M 550.37,434.01 C 549.92 434.28, 549.79 434.37, 549.54 435.02 C 549.28 435.67, 549.15 436.09, 549.10 437.26 C 549.04 438.44, 549.15 439.17, 549.27 440.91 C 549.39 442.65, 549.53 443.79, 549.69 445.98 C 549.85 448.18, 549.94 449.39, 550.07 451.87 C 550.20 454.35, 550.21 455.77, 550.35 458.37 C 550.49 460.96, 550.58 462.31, 550.75 464.83 C 550.92 467.35, 551.02 468.72, 551.21 470.97 C 551.40 473.23, 551.47 474.34, 551.69 476.12 C 551.90 477.90, 552.01 478.70, 552.27 479.86 C 552.53 481.03, 552.63 481.39, 552.97 481.93 C 553.31 482.46, 553.67 482.46, 553.96 482.54 C 554.25 482.62, 554.37 482.34, 554.42 482.33 C 554.46 482.32, 554.11 482.46, 554.19 482.49 C 554.26 482.52, 554.51 482.66, 554.79 482.48 C 555.06 482.31, 555.34 482.21, 555.55 481.62 C 555.75 481.03, 555.76 480.70, 555.80 479.55 C 555.85 478.39, 555.82 477.59, 555.78 475.82 C 555.74 474.05, 555.69 472.95, 555.59 470.70 C 555.49 468.44, 555.40 467.07, 555.28 464.57 C 555.17 462.07, 555.08 460.75, 555.01 458.18 C 554.94 455.61, 554.98 454.19, 554.93 451.70 C 554.89 449.21, 554.85 447.96, 554.79 445.73 C 554.73 443.49, 554.76 442.33, 554.62 440.53 C 554.49 438.72, 554.44 437.93, 554.12 436.71 C 553.80 435.49, 553.49 435.03, 553.02 434.43 C 552.55 433.82, 552.30 433.76, 551.77 433.68 C 551.24 433.59, 550.81 433.74, 550.37 434.01" style="stroke: black; fill: black;"/><path d="M 539.86,467.80 C 540.28 468.23, 540.57 468.27, 541.50 468.42 C 542.44 468.58, 543.05 468.64, 544.51 468.58 C 545.97 468.51, 546.91 468.29, 548.80 468.09 C 550.70 467.90, 551.81 467.78, 553.98 467.60 C 556.15 467.43, 557.40 467.37, 559.66 467.21 C 561.93 467.04, 563.24 466.96, 565.31 466.76 C 567.37 466.56, 568.43 466.49, 569.98 466.20 C 571.53 465.91, 572.12 465.68, 573.06 465.30 C 573.99 464.92, 574.36 464.74, 574.65 464.32 C 574.95 463.90, 574.90 463.53, 574.53 463.18 C 574.16 462.83, 573.78 462.77, 572.81 462.56 C 571.85 462.36, 571.26 462.22, 569.70 462.14 C 568.14 462.06, 567.08 462.11, 565.02 462.17 C 562.95 462.23, 561.65 462.32, 559.38 462.43 C 557.11 462.53, 555.90 462.59, 553.69 462.68 C 551.47 462.76, 550.31 462.68, 548.32 462.84 C 546.34 463.00, 545.28 463.09, 543.75 463.47 C 542.23 463.85, 541.57 464.18, 540.69 464.73 C 539.82 465.28, 539.56 465.62, 539.39 466.23 C 539.23 466.85, 539.44 467.36, 539.86 467.80" style="stroke: black; fill: black;"/><path d="M 603.93,443.46 C 604.30 442.89, 604.36 442.38, 604.17 441.49 C 603.99 440.61, 603.77 439.97, 603.02 439.05 C 602.27 438.12, 601.63 437.53, 600.42 436.85 C 599.22 436.17, 598.47 435.90, 596.98 435.66 C 595.48 435.42, 594.62 435.33, 592.96 435.65 C 591.31 435.96, 590.36 436.26, 588.70 437.24 C 587.05 438.22, 586.17 438.90, 584.68 440.55 C 583.19 442.19, 582.41 443.24, 581.26 445.46 C 580.11 447.68, 579.63 449.02, 578.94 451.64 C 578.24 454.26, 578.04 455.69, 577.80 458.54 C 577.55 461.39, 577.60 462.94, 577.73 465.89 C 577.85 468.84, 578.07 470.40, 578.44 473.28 C 578.82 476.16, 579.09 477.58, 579.60 480.30 C 580.11 483.02, 580.48 484.42, 581.00 486.88 C 581.53 489.33, 581.77 490.47, 582.21 492.56 C 582.64 494.66, 582.83 495.72, 583.17 497.36 C 583.51 499.01, 583.59 499.71, 583.90 500.78 C 584.20 501.85, 584.39 502.16, 584.70 502.71 C 585.01 503.27, 585.11 503.42, 585.45 503.58 C 585.78 503.73, 586.06 503.71, 586.36 503.50 C 586.66 503.28, 586.73 503.15, 586.94 502.52 C 587.15 501.90, 587.36 501.53, 587.40 500.36 C 587.44 499.20, 587.35 498.43, 587.13 496.71 C 586.91 494.99, 586.70 493.91, 586.32 491.77 C 585.93 489.63, 585.69 488.47, 585.21 486.02 C 584.74 483.56, 584.41 482.16, 583.93 479.51 C 583.45 476.85, 583.16 475.48, 582.81 472.72 C 582.47 469.97, 582.29 468.47, 582.20 465.72 C 582.11 462.96, 582.11 461.52, 582.35 458.94 C 582.59 456.37, 582.79 455.10, 583.41 452.84 C 584.02 450.57, 584.49 449.45, 585.43 447.62 C 586.38 445.78, 587.02 444.94, 588.15 443.64 C 589.28 442.34, 589.94 441.86, 591.08 441.12 C 592.23 440.38, 592.84 440.19, 593.87 439.94 C 594.90 439.69, 595.44 439.69, 596.23 439.85 C 597.02 440.02, 597.22 440.25, 597.81 440.77 C 598.39 441.29, 598.55 441.85, 599.14 442.45 C 599.73 443.04, 600.10 443.37, 600.74 443.74 C 601.38 444.12, 601.71 444.37, 602.34 444.31 C 602.98 444.25, 603.57 444.02, 603.93 443.46" style="stroke: black; fill: black;"/><path d="M 564.84,478.88 C 565.30 479.23, 565.54 479.18, 566.44 479.21 C 567.35 479.23, 567.83 479.18, 569.35 479.02 C 570.88 478.86, 571.86 478.70, 574.07 478.39 C 576.28 478.09, 577.70 477.86, 580.41 477.49 C 583.13 477.12, 584.67 476.84, 587.63 476.53 C 590.60 476.22, 592.25 476.11, 595.25 475.93 C 598.25 475.74, 599.81 475.76, 602.65 475.59 C 605.50 475.43, 606.93 475.34, 609.46 475.12 C 612.00 474.90, 613.25 474.76, 615.33 474.50 C 617.41 474.24, 618.34 474.12, 619.88 473.84 C 621.42 473.56, 622.07 473.39, 623.04 473.10 C 624.00 472.80, 624.23 472.66, 624.71 472.37 C 625.19 472.08, 625.25 471.90, 625.44 471.64 C 625.62 471.38, 625.68 471.30, 625.63 471.05 C 625.58 470.80, 625.35 470.58, 625.20 470.41 C 625.04 470.24, 625.06 470.29, 624.84 470.19 C 624.63 470.09, 624.61 469.97, 624.14 469.90 C 623.66 469.83, 623.43 469.80, 622.48 469.83 C 621.53 469.87, 620.89 469.94, 619.38 470.07 C 617.87 470.19, 616.96 470.29, 614.92 470.45 C 612.87 470.61, 611.64 470.72, 609.14 470.88 C 606.64 471.04, 605.24 471.10, 602.41 471.26 C 599.58 471.42, 598.03 471.52, 595.01 471.67 C 591.98 471.83, 590.31 471.90, 587.29 472.05 C 584.26 472.20, 582.67 472.22, 579.87 472.44 C 577.08 472.65, 575.63 472.79, 573.32 473.13 C 571.00 473.48, 569.90 473.62, 568.28 474.15 C 566.65 474.68, 566.03 475.14, 565.20 475.80 C 564.37 476.46, 564.20 476.84, 564.13 477.46 C 564.06 478.07, 564.38 478.53, 564.84 478.88" style="stroke: black; fill: black;"/><path d="M 641.11,469.04 C 641.29 468.46, 641.22 468.05, 640.80 467.41 C 640.38 466.76, 640.01 466.29, 639.02 465.81 C 638.03 465.32, 637.24 465.09, 635.83 464.99 C 634.42 464.89, 633.61 464.99, 631.97 465.30 C 630.33 465.61, 629.40 465.84, 627.64 466.54 C 625.88 467.24, 624.85 467.70, 623.17 468.79 C 621.48 469.88, 620.57 470.59, 619.22 471.98 C 617.87 473.37, 617.21 474.19, 616.41 475.75 C 615.60 477.31, 615.28 478.21, 615.20 479.77 C 615.12 481.34, 615.29 482.25, 616.01 483.58 C 616.74 484.90, 617.38 485.55, 618.82 486.41 C 620.25 487.27, 621.21 487.60, 623.18 487.88 C 625.14 488.16, 626.38 488.13, 628.66 487.82 C 630.94 487.52, 632.24 487.10, 634.58 486.34 C 636.92 485.58, 638.20 485.09, 640.36 484.03 C 642.52 482.96, 643.65 482.29, 645.39 481.02 C 647.13 479.75, 647.93 479.05, 649.06 477.69 C 650.19 476.32, 650.61 475.56, 651.03 474.18 C 651.45 472.79, 651.43 472.05, 651.15 470.75 C 650.88 469.44, 650.51 468.73, 649.66 467.65 C 648.81 466.58, 648.16 466.12, 646.90 465.39 C 645.65 464.67, 644.84 464.36, 643.38 464.04 C 641.92 463.71, 640.98 463.59, 639.62 463.75 C 638.25 463.91, 637.45 464.26, 636.56 464.83 C 635.66 465.40, 635.29 465.98, 635.14 466.60 C 634.99 467.23, 635.31 467.63, 635.78 467.96 C 636.26 468.28, 636.74 468.14, 637.54 468.22 C 638.33 468.31, 638.79 468.28, 639.75 468.37 C 640.71 468.46, 641.32 468.46, 642.33 468.69 C 643.35 468.92, 643.93 469.16, 644.83 469.52 C 645.73 469.87, 646.19 470.05, 646.82 470.47 C 647.45 470.89, 647.76 471.11, 647.99 471.62 C 648.21 472.13, 648.30 472.35, 647.95 473.03 C 647.60 473.71, 647.24 474.14, 646.24 475.02 C 645.24 475.90, 644.54 476.46, 642.97 477.42 C 641.40 478.37, 640.37 478.94, 638.40 479.79 C 636.43 480.65, 635.21 481.05, 633.12 481.68 C 631.03 482.31, 629.84 482.62, 627.94 482.93 C 626.03 483.24, 625.07 483.25, 623.59 483.23 C 622.11 483.20, 621.47 483.09, 620.55 482.82 C 619.63 482.54, 619.32 482.39, 618.98 481.87 C 618.63 481.34, 618.63 481.00, 618.82 480.20 C 619.02 479.39, 619.26 478.84, 619.96 477.86 C 620.67 476.87, 621.20 476.25, 622.35 475.26 C 623.50 474.27, 624.28 473.72, 625.70 472.89 C 627.12 472.06, 628.01 471.67, 629.44 471.10 C 630.88 470.54, 631.68 470.31, 632.89 470.07 C 634.10 469.83, 634.62 469.86, 635.51 469.91 C 636.40 469.96, 636.73 470.20, 637.35 470.32 C 637.97 470.43, 638.12 470.48, 638.62 470.49 C 639.13 470.49, 639.37 470.63, 639.87 470.34 C 640.37 470.05, 640.92 469.63, 641.11 469.04" style="stroke: black; fill: black;"/><path d="M 667.17,433.21 C 666.70 433.54, 666.67 433.79, 666.40 434.60 C 666.14 435.42, 665.97 435.86, 665.86 437.27 C 665.75 438.69, 665.82 439.69, 665.85 441.68 C 665.87 443.66, 665.99 444.83, 665.98 447.19 C 665.97 449.55, 665.90 450.90, 665.80 453.47 C 665.70 456.04, 665.60 457.42, 665.48 460.03 C 665.36 462.64, 665.24 464.01, 665.20 466.52 C 665.17 469.02, 665.18 470.29, 665.31 472.56 C 665.44 474.83, 665.51 475.95, 665.85 477.87 C 666.19 479.80, 666.36 480.73, 667.01 482.18 C 667.66 483.63, 668.18 484.26, 669.09 485.15 C 670.00 486.03, 670.65 486.32, 671.56 486.63 C 672.48 486.93, 673.03 486.86, 673.67 486.67 C 674.31 486.49, 674.59 486.16, 674.75 485.71 C 674.91 485.26, 674.66 484.79, 674.45 484.43 C 674.24 484.06, 674.04 484.08, 673.71 483.88 C 673.38 483.69, 673.25 483.66, 672.81 483.44 C 672.37 483.21, 671.99 483.27, 671.52 482.76 C 671.04 482.24, 670.78 481.95, 670.45 480.86 C 670.12 479.77, 670.06 478.99, 669.88 477.30 C 669.71 475.60, 669.63 474.52, 669.58 472.39 C 669.52 470.25, 669.52 469.05, 669.61 466.63 C 669.71 464.21, 669.86 462.88, 670.05 460.30 C 670.24 457.72, 670.37 456.33, 670.56 453.74 C 670.76 451.15, 670.90 449.76, 671.02 447.34 C 671.15 444.91, 671.22 443.68, 671.20 441.62 C 671.17 439.56, 671.16 438.51, 670.91 437.03 C 670.66 435.56, 670.39 435.06, 669.96 434.25 C 669.54 433.43, 669.34 433.17, 668.78 432.96 C 668.22 432.75, 667.65 432.88, 667.17 433.21" style="stroke: black; fill: black;"/><path d="M 686.77,465.68 C 686.31 466.11, 686.34 466.54, 686.20 467.33 C 686.07 468.11, 686.08 468.51, 686.07 469.61 C 686.07 470.71, 686.11 471.44, 686.19 472.85 C 686.26 474.26, 686.35 475.14, 686.45 476.66 C 686.55 478.18, 686.59 479.00, 686.68 480.43 C 686.78 481.86, 686.59 482.61, 686.92 483.79 C 687.24 484.97, 687.55 485.74, 688.32 486.35 C 689.08 486.96, 689.84 486.93, 690.73 486.84 C 691.61 486.75, 692.33 486.45, 692.74 485.89 C 693.16 485.34, 693.31 484.66, 692.80 484.07 C 692.30 483.48, 690.97 482.96, 690.21 482.94 C 689.46 482.92, 689.12 483.52, 689.02 483.96 C 688.92 484.40, 689.40 484.88, 689.71 485.12 C 690.03 485.37, 690.33 485.52, 690.61 485.18 C 690.89 484.84, 690.97 484.38, 691.11 483.42 C 691.24 482.46, 691.23 481.77, 691.30 480.39 C 691.37 479.02, 691.43 478.11, 691.46 476.54 C 691.48 474.97, 691.53 474.04, 691.43 472.54 C 691.33 471.03, 691.26 470.22, 690.97 469.01 C 690.68 467.80, 690.48 467.25, 689.99 466.48 C 689.50 465.70, 689.16 465.31, 688.52 465.15 C 687.88 464.99, 687.23 465.24, 686.77 465.68" style="stroke: black; fill: black;"/><path d="M 689.62,443.91 C 689.91 444.25, 690.07 444.14, 689.89 443.74 C 689.72 443.34, 689.03 442.23, 688.74 441.90 C 688.46 441.56, 688.29 441.66, 688.47 442.07 C 688.65 442.47, 689.34 443.58, 689.62 443.91" style="stroke: black; fill: black;"/><path d="M 728.58,466.12 C 728.84 465.56, 728.80 465.16, 728.48 464.52 C 728.16 463.88, 727.84 463.44, 726.98 462.90 C 726.11 462.36, 725.46 462.08, 724.17 461.83 C 722.88 461.58, 722.11 461.55, 720.53 461.67 C 718.94 461.79, 718.00 461.90, 716.23 462.44 C 714.47 462.99, 713.44 463.43, 711.71 464.38 C 709.99 465.33, 709.10 465.93, 707.60 467.18 C 706.11 468.44, 705.30 469.14, 704.23 470.66 C 703.16 472.17, 702.66 473.10, 702.25 474.74 C 701.85 476.39, 701.85 477.31, 702.19 478.88 C 702.54 480.45, 702.90 481.28, 703.99 482.59 C 705.08 483.90, 705.90 484.58, 707.65 485.43 C 709.39 486.27, 710.52 486.52, 712.70 486.83 C 714.87 487.13, 716.14 487.16, 718.51 486.97 C 720.89 486.79, 722.25 486.54, 724.58 485.90 C 726.92 485.26, 728.12 484.75, 730.19 483.76 C 732.25 482.77, 733.28 482.21, 734.90 480.96 C 736.53 479.71, 737.27 478.97, 738.31 477.50 C 739.34 476.03, 739.71 475.16, 740.07 473.59 C 740.43 472.02, 740.41 471.17, 740.11 469.65 C 739.80 468.13, 739.47 467.28, 738.56 465.97 C 737.64 464.66, 736.92 464.00, 735.55 463.10 C 734.17 462.19, 733.28 461.88, 731.68 461.45 C 730.08 461.01, 729.14 460.89, 727.55 460.92 C 725.95 460.96, 724.97 461.14, 723.73 461.64 C 722.48 462.13, 721.97 462.69, 721.32 463.42 C 720.68 464.14, 720.56 464.64, 720.48 465.26 C 720.40 465.89, 720.62 466.30, 720.93 466.54 C 721.24 466.77, 721.74 466.51, 722.03 466.45 C 722.31 466.40, 722.10 466.29, 722.37 466.26 C 722.63 466.22, 722.84 466.39, 723.37 466.28 C 723.89 466.16, 724.16 465.84, 725.00 465.69 C 725.84 465.53, 726.45 465.46, 727.55 465.50 C 728.66 465.53, 729.41 465.58, 730.54 465.85 C 731.68 466.12, 732.28 466.32, 733.22 466.85 C 734.15 467.38, 734.58 467.76, 735.22 468.50 C 735.85 469.23, 736.14 469.68, 736.40 470.53 C 736.65 471.37, 736.74 471.81, 736.50 472.74 C 736.27 473.67, 736.03 474.21, 735.22 475.18 C 734.41 476.15, 733.85 476.68, 732.48 477.59 C 731.11 478.49, 730.17 478.95, 728.36 479.71 C 726.54 480.47, 725.45 480.89, 723.41 481.39 C 721.37 481.89, 720.19 482.05, 718.16 482.19 C 716.13 482.33, 715.03 482.27, 713.28 482.09 C 711.52 481.92, 710.67 481.75, 709.39 481.32 C 708.10 480.88, 707.59 480.56, 706.87 479.92 C 706.14 479.27, 705.93 478.91, 705.76 478.10 C 705.59 477.29, 705.62 476.83, 705.99 475.86 C 706.37 474.90, 706.74 474.30, 707.63 473.28 C 708.52 472.26, 709.17 471.70, 710.44 470.77 C 711.70 469.84, 712.51 469.37, 713.96 468.65 C 715.41 467.93, 716.28 467.59, 717.68 467.17 C 719.07 466.74, 719.80 466.64, 720.94 466.54 C 722.07 466.43, 722.56 466.53, 723.36 466.64 C 724.15 466.74, 724.39 466.93, 724.91 467.07 C 725.43 467.22, 725.49 467.31, 725.95 467.36 C 726.40 467.40, 726.66 467.56, 727.18 467.31 C 727.71 467.07, 728.32 466.68, 728.58 466.12" style="stroke: black; fill: black;"/></svg>